<?xml version="1.0" encoding="utf-8" standalone="no"?>
<!DOCTYPE svg PUBLIC "-//W3C//DTD SVG 1.1//EN"
  "http://www.w3.org/Graphics/SVG/1.1/DTD/svg11.dtd">
<!-- Created with matplotlib (http://matplotlib.org/) -->
<svg height="324pt" version="1.1" viewBox="0 0 432 324" width="432pt" xmlns="http://www.w3.org/2000/svg" xmlns:xlink="http://www.w3.org/1999/xlink">
 <defs>
  <style type="text/css">
*{stroke-linecap:butt;stroke-linejoin:round;}
  </style>
 </defs>
 <g id="figure_1">
  <g id="patch_1">
   <path d="
M0 324
L432 324
L432 0
L0 0
z
" style="fill:#ffffff;"/>
  </g>
  <g id="axes_1">
   <g id="patch_2">
    <path d="
M54 291.6
L388.8 291.6
L388.8 32.4
L54 32.4
z
" style="fill:#eeeeee;"/>
   </g>
   <g id="matplotlib.axis_1">
    <g id="xtick_1">
     <g id="line2d_1">
      <path clip-path="url(#p63b29d1948)" d="
M54 291.6
L54 32.4" style="fill:none;stroke:#000000;stroke-dasharray:1.000000,3.000000;stroke-dashoffset:0.0;stroke-width:0.5;"/>
     </g>
     <g id="line2d_2">
      <defs>
       <path d="
M0 0
L0 0" id="m8bc147ca23" style="stroke:#555555;stroke-width:0.5;"/>
      </defs>
      <g>
       <use style="fill:#555555;stroke:#555555;stroke-width:0.5;" x="54.0" xlink:href="#m8bc147ca23" y="291.6"/>
      </g>
     </g>
     <g id="line2d_3">
      <g>
       <use style="fill:#555555;stroke:#555555;stroke-width:0.5;" x="54.0" xlink:href="#m8bc147ca23" y="32.4"/>
      </g>
     </g>
     <g id="text_1">
      <!-- 18 -->
      <defs>
       <path d="
M49.7031 0
L13.4844 0
L13.4844 6.98438
L28.0781 6.98438
L28.0781 60.5
L14.3125 53.6094
L14.3125 61.625
L29.2031 69.2812
L36.0781 69.2812
L36.0781 6.98438
L49.7031 6.98438
z
" id="AndaleMono-31"/>
       <path d="
M36.9219 37.7969
Q43.9531 35.75 47.8281 30.8125
Q51.7031 25.875 51.7031 19.2812
Q51.7031 9.8125 45.4219 4.25
Q39.1562 -1.3125 29.9844 -1.3125
Q20.3594 -1.3125 14.1875 4.29688
Q8.01562 9.90625 8.01562 19.1875
Q8.01562 25.7344 12.0156 30.7031
Q16.0156 35.6875 23.1875 37.7969
Q17.4844 39.2656 14.0312 43.4375
Q10.5938 47.6094 10.5938 52.7812
Q10.5938 59.4219 15.8594 64.8125
Q21.1406 70.2188 29.7812 70.2188
Q38.3281 70.2188 43.9219 64.8438
Q49.5156 59.4688 49.5156 52.7812
Q49.5156 47.75 46 43.5312
Q42.4844 39.3125 36.9219 37.7969
M29.7812 41.1094
Q30.0312 41.1094 32.125 41.6875
Q34.2344 42.2812 35.7188 43.1406
Q37.2031 44 38.4688 45.3125
Q39.75 46.625 40.5312 48.4062
Q41.3125 50.2031 41.3125 52.3906
Q41.3125 57.0781 37.9375 60.1719
Q34.5781 63.2812 29.7812 63.2812
Q25.1406 63.2812 21.8125 60.1094
Q18.5 56.9375 18.5 52.3906
Q18.5 49.5156 19.7031 47.3594
Q20.9062 45.2188 22.6875 43.8906
Q24.4688 42.5781 26.7812 41.8438
Q29.1094 41.1094 29.7812 41.1094
M29.7812 34.2812
Q16.4062 30.375 16.4062 19.5781
Q16.4062 13.2812 20.4531 9.5
Q24.5156 5.71875 29.9844 5.71875
Q35.6406 5.71875 39.5156 9.45312
Q43.4062 13.1875 43.4062 19.5781
Q43.4062 24.4219 40.7188 28.25
Q38.0312 32.0781 29.7812 34.2812" id="AndaleMono-38"/>
      </defs>
      <g style="fill:#555555;" transform="translate(49.08828125 304.4890625)scale(0.1 -0.1)">
       <use xlink:href="#AndaleMono-31"/>
       <use x="60.009765625" xlink:href="#AndaleMono-38"/>
      </g>
     </g>
    </g>
    <g id="xtick_2">
     <g id="line2d_4">
      <path clip-path="url(#p63b29d1948)" d="
M95.85 291.6
L95.85 32.4" style="fill:none;stroke:#000000;stroke-dasharray:1.000000,3.000000;stroke-dashoffset:0.0;stroke-width:0.5;"/>
     </g>
     <g id="line2d_5">
      <g>
       <use style="fill:#555555;stroke:#555555;stroke-width:0.5;" x="95.85" xlink:href="#m8bc147ca23" y="291.6"/>
      </g>
     </g>
     <g id="line2d_6">
      <g>
       <use style="fill:#555555;stroke:#555555;stroke-width:0.5;" x="95.85" xlink:href="#m8bc147ca23" y="32.4"/>
      </g>
     </g>
     <g id="text_2">
      <!-- 20 -->
      <defs>
       <path d="
M29.8906 70.2188
Q40.8281 70.2188 46.7031 60.8125
Q52.5938 51.4219 52.5938 34.4219
Q52.5938 17.9688 46.875 8.32812
Q41.1562 -1.3125 29.8906 -1.3125
Q19 -1.3125 13.0781 8.0625
Q7.17188 17.4375 7.17188 34.4219
Q7.17188 50.9219 12.9062 60.5625
Q18.6562 70.2188 29.8906 70.2188
M29.8906 5.71875
Q37.1094 5.71875 40.5938 12.5781
Q44.0938 19.4375 44.0938 34.4219
Q44.0938 49.4688 40.5938 56.2812
Q37.1094 63.0938 29.8906 63.0938
Q22.75 63.0938 19.2344 56.1094
Q15.7188 49.125 15.7188 34.4219
Q15.7188 19.5312 19.2031 12.625
Q22.7031 5.71875 29.8906 5.71875
M29.6875 41.75
Q32.7656 41.75 34.8906 39.625
Q37.0156 37.5 37.0156 34.4219
Q37.0156 31.25 34.8594 28.9688
Q32.7188 26.7031 29.6875 26.7031
Q26.7031 26.7031 24.5781 28.9688
Q22.4688 31.25 22.4688 34.4219
Q22.4688 37.5469 24.5312 39.6406
Q26.6094 41.75 29.6875 41.75" id="AndaleMono-30"/>
       <path d="
M47.9062 0
L10.0156 0
L10.0156 5.8125
Q24.4219 21.875 28.7188 27.3438
Q33.0156 32.8125 35.6875 38.8125
Q38.375 44.8281 38.375 50.7812
Q38.375 56.5469 34.875 59.8594
Q31.3906 63.1875 25.0938 63.1875
Q20.2656 63.1875 12.1094 60.2031
L10.9844 67.0938
Q18.3594 70.2188 26.4219 70.2188
Q35.6406 70.2188 41.2812 65.0156
Q46.9219 59.8125 46.9219 51.125
Q46.9219 44.9219 44.0156 38.8125
Q41.1094 32.7188 36.5625 27.0938
Q32.0312 21.4844 18.8906 6.98438
L47.9062 6.98438
z
" id="AndaleMono-32"/>
      </defs>
      <g style="fill:#555555;" transform="translate(90.7203125 304.4890625)scale(0.1 -0.1)">
       <use xlink:href="#AndaleMono-32"/>
       <use x="60.009765625" xlink:href="#AndaleMono-30"/>
      </g>
     </g>
    </g>
    <g id="xtick_3">
     <g id="line2d_7">
      <path clip-path="url(#p63b29d1948)" d="
M137.7 291.6
L137.7 32.4" style="fill:none;stroke:#000000;stroke-dasharray:1.000000,3.000000;stroke-dashoffset:0.0;stroke-width:0.5;"/>
     </g>
     <g id="line2d_8">
      <g>
       <use style="fill:#555555;stroke:#555555;stroke-width:0.5;" x="137.7" xlink:href="#m8bc147ca23" y="291.6"/>
      </g>
     </g>
     <g id="line2d_9">
      <g>
       <use style="fill:#555555;stroke:#555555;stroke-width:0.5;" x="137.7" xlink:href="#m8bc147ca23" y="32.4"/>
      </g>
     </g>
     <g id="text_3">
      <!-- 22 -->
      <g style="fill:#555555;" transform="translate(132.8046875 304.4890625)scale(0.1 -0.1)">
       <use xlink:href="#AndaleMono-32"/>
       <use x="60.009765625" xlink:href="#AndaleMono-32"/>
      </g>
     </g>
    </g>
    <g id="xtick_4">
     <g id="line2d_10">
      <path clip-path="url(#p63b29d1948)" d="
M179.55 291.6
L179.55 32.4" style="fill:none;stroke:#000000;stroke-dasharray:1.000000,3.000000;stroke-dashoffset:0.0;stroke-width:0.5;"/>
     </g>
     <g id="line2d_11">
      <g>
       <use style="fill:#555555;stroke:#555555;stroke-width:0.5;" x="179.55" xlink:href="#m8bc147ca23" y="291.6"/>
      </g>
     </g>
     <g id="line2d_12">
      <g>
       <use style="fill:#555555;stroke:#555555;stroke-width:0.5;" x="179.55" xlink:href="#m8bc147ca23" y="32.4"/>
      </g>
     </g>
     <g id="text_4">
      <!-- 24 -->
      <defs>
       <path d="
M52.3906 15.9219
L43.8906 15.9219
L43.8906 0
L35.8906 0
L35.8906 15.9219
L5.90625 15.9219
L5.90625 22.0156
L33.1094 68.8906
L43.8906 68.8906
L43.8906 22.9062
L52.3906 22.9062
z

M35.8906 22.9062
L35.8906 60.9844
L14.0156 22.9062
z
" id="AndaleMono-34"/>
      </defs>
      <g style="fill:#555555;" transform="translate(174.43046875 304.4890625)scale(0.1 -0.1)">
       <use xlink:href="#AndaleMono-32"/>
       <use x="60.009765625" xlink:href="#AndaleMono-34"/>
      </g>
     </g>
    </g>
    <g id="xtick_5">
     <g id="line2d_13">
      <path clip-path="url(#p63b29d1948)" d="
M221.4 291.6
L221.4 32.4" style="fill:none;stroke:#000000;stroke-dasharray:1.000000,3.000000;stroke-dashoffset:0.0;stroke-width:0.5;"/>
     </g>
     <g id="line2d_14">
      <g>
       <use style="fill:#555555;stroke:#555555;stroke-width:0.5;" x="221.4" xlink:href="#m8bc147ca23" y="291.6"/>
      </g>
     </g>
     <g id="line2d_15">
      <g>
       <use style="fill:#555555;stroke:#555555;stroke-width:0.5;" x="221.4" xlink:href="#m8bc147ca23" y="32.4"/>
      </g>
     </g>
     <g id="text_5">
      <!-- 26 -->
      <defs>
       <path d="
M17.6719 35.8906
Q24.125 41.1094 31.6875 41.1094
Q40.4375 41.1094 46.2656 35.5156
Q52.0938 29.9375 52.0938 21.0938
Q52.0938 11.375 46.9219 5.03125
Q41.75 -1.3125 33.1094 -1.3125
Q22.0781 -1.3125 15.625 8.8125
Q9.1875 18.9531 9.1875 33.5938
Q9.1875 49.2188 15.8906 59.7188
Q22.6094 70.2188 34.2812 70.2188
Q42.3281 70.2188 48.1875 67.8281
L46.9219 60.6875
Q40.1406 63.1875 34.5156 63.1875
Q26.5625 63.1875 22.1094 55.5625
Q17.6719 47.9531 17.6719 35.8906
M17.9219 29
Q17.9219 20.1719 22.0625 12.9375
Q26.2188 5.71875 32.5156 5.71875
Q37.8438 5.71875 40.7188 9.625
Q43.6094 13.5312 43.6094 20.4062
Q43.6094 26.7656 40.4219 30.4219
Q37.25 34.0781 31.5 34.0781
Q24.0312 34.0781 17.9219 29" id="AndaleMono-36"/>
      </defs>
      <g style="fill:#555555;" transform="translate(216.2953125 304.4890625)scale(0.1 -0.1)">
       <use xlink:href="#AndaleMono-32"/>
       <use x="60.009765625" xlink:href="#AndaleMono-36"/>
      </g>
     </g>
    </g>
    <g id="xtick_6">
     <g id="line2d_16">
      <path clip-path="url(#p63b29d1948)" d="
M263.25 291.6
L263.25 32.4" style="fill:none;stroke:#000000;stroke-dasharray:1.000000,3.000000;stroke-dashoffset:0.0;stroke-width:0.5;"/>
     </g>
     <g id="line2d_17">
      <g>
       <use style="fill:#555555;stroke:#555555;stroke-width:0.5;" x="263.25" xlink:href="#m8bc147ca23" y="291.6"/>
      </g>
     </g>
     <g id="line2d_18">
      <g>
       <use style="fill:#555555;stroke:#555555;stroke-width:0.5;" x="263.25" xlink:href="#m8bc147ca23" y="32.4"/>
      </g>
     </g>
     <g id="text_6">
      <!-- 28 -->
      <g style="fill:#555555;" transform="translate(258.16484375 304.4890625)scale(0.1 -0.1)">
       <use xlink:href="#AndaleMono-32"/>
       <use x="60.009765625" xlink:href="#AndaleMono-38"/>
      </g>
     </g>
    </g>
    <g id="xtick_7">
     <g id="line2d_19">
      <path clip-path="url(#p63b29d1948)" d="
M305.1 291.6
L305.1 32.4" style="fill:none;stroke:#000000;stroke-dasharray:1.000000,3.000000;stroke-dashoffset:0.0;stroke-width:0.5;"/>
     </g>
     <g id="line2d_20">
      <g>
       <use style="fill:#555555;stroke:#555555;stroke-width:0.5;" x="305.1" xlink:href="#m8bc147ca23" y="291.6"/>
      </g>
     </g>
     <g id="line2d_21">
      <g>
       <use style="fill:#555555;stroke:#555555;stroke-width:0.5;" x="305.1" xlink:href="#m8bc147ca23" y="32.4"/>
      </g>
     </g>
     <g id="text_7">
      <!-- 30 -->
      <defs>
       <path d="
M34.2812 37.0156
Q40.5781 35.25 44.375 30.5781
Q48.1875 25.9219 48.1875 20.125
Q48.1875 11.0312 41.1094 4.85938
Q34.0312 -1.3125 24.4219 -1.3125
Q16.2188 -1.3125 9.71875 2.29688
L11.2812 8.89062
Q18.0625 5.71875 24.7031 5.71875
Q30.9531 5.71875 35.375 9.59375
Q39.7969 13.4844 39.7969 19.5781
Q39.7969 25.5938 35.0625 29.3438
Q30.3281 33.1094 22.5156 33.1094
L20.4062 33.1094
L20.4062 39.7031
L21 39.7031
Q28.5156 39.7031 33.3906 43.2344
Q38.2812 46.7812 38.2812 52.7812
Q38.2812 57.6719 34.7656 60.4219
Q31.25 63.1875 25.0938 63.1875
Q19.7812 63.1875 13.1875 60.2969
L12.1094 67.1875
Q18.75 70.2188 25.4844 70.2188
Q34.7188 70.2188 40.7031 65.3594
Q46.6875 60.5 46.6875 52.875
Q46.6875 47.6094 43.0469 43.0469
Q39.4062 38.4844 34.2812 37.3125
z
" id="AndaleMono-33"/>
      </defs>
      <g style="fill:#555555;" transform="translate(299.95546875 304.4890625)scale(0.1 -0.1)">
       <use xlink:href="#AndaleMono-33"/>
       <use x="60.009765625" xlink:href="#AndaleMono-30"/>
      </g>
     </g>
    </g>
    <g id="xtick_8">
     <g id="line2d_22">
      <path clip-path="url(#p63b29d1948)" d="
M346.95 291.6
L346.95 32.4" style="fill:none;stroke:#000000;stroke-dasharray:1.000000,3.000000;stroke-dashoffset:0.0;stroke-width:0.5;"/>
     </g>
     <g id="line2d_23">
      <g>
       <use style="fill:#555555;stroke:#555555;stroke-width:0.5;" x="346.95" xlink:href="#m8bc147ca23" y="291.6"/>
      </g>
     </g>
     <g id="line2d_24">
      <g>
       <use style="fill:#555555;stroke:#555555;stroke-width:0.5;" x="346.95" xlink:href="#m8bc147ca23" y="32.4"/>
      </g>
     </g>
     <g id="text_8">
      <!-- 32 -->
      <g style="fill:#555555;" transform="translate(342.03984375 304.4890625)scale(0.1 -0.1)">
       <use xlink:href="#AndaleMono-33"/>
       <use x="60.009765625" xlink:href="#AndaleMono-32"/>
      </g>
     </g>
    </g>
    <g id="xtick_9">
     <g id="line2d_25">
      <path clip-path="url(#p63b29d1948)" d="
M388.8 291.6
L388.8 32.4" style="fill:none;stroke:#000000;stroke-dasharray:1.000000,3.000000;stroke-dashoffset:0.0;stroke-width:0.5;"/>
     </g>
     <g id="line2d_26">
      <g>
       <use style="fill:#555555;stroke:#555555;stroke-width:0.5;" x="388.8" xlink:href="#m8bc147ca23" y="291.6"/>
      </g>
     </g>
     <g id="line2d_27">
      <g>
       <use style="fill:#555555;stroke:#555555;stroke-width:0.5;" x="388.8" xlink:href="#m8bc147ca23" y="32.4"/>
      </g>
     </g>
     <g id="text_9">
      <!-- 34 -->
      <g style="fill:#555555;" transform="translate(383.665625 304.4890625)scale(0.1 -0.1)">
       <use xlink:href="#AndaleMono-33"/>
       <use x="60.009765625" xlink:href="#AndaleMono-34"/>
      </g>
     </g>
    </g>
    <g id="text_10">
     <!-- Co-founder Age -->
     <defs>
      <path d="
M50.4844 49.5156
L47.4062 42.1875
Q42.3906 44.3906 38.7188 44.3906
Q35.3594 44.3906 32.125 42.4531
Q28.9062 40.5312 26.1875 36.9375
Q23.4844 33.3438 23.4844 32.9062
L23.4844 0
L15.9219 0
L15.9219 50.875
L23.4844 50.875
L23.4844 40.5781
Q29.5938 52.0938 39.3125 52.0938
Q45.0625 52.0938 50.4844 49.5156" id="AndaleMono-72"/>
      <path d="
M50.2031 68.1094
L48.1875 61.9219
Q42.7812 63.4844 38.4844 63.4844
Q34.375 63.4844 32.8281 61.1562
Q31.2969 58.8438 31.2969 51.8125
L31.2969 50.875
L48.3906 50.875
L48.3906 44.2812
L31.2969 44.2812
L31.2969 0
L23.6875 0
L23.6875 44.2812
L10.8906 44.2812
L10.8906 50.875
L23.6875 50.875
L23.6875 52.5938
Q23.6875 62.3125 27 66.2188
Q30.3281 70.125 38.4844 70.125
Q43.75 70.125 50.2031 68.1094" id="AndaleMono-66"/>
      <path d="
M24.6094 19.1875
Q17.4844 15.7188 17.4844 13.0938
Q17.4844 11.6719 19.1094 10.6875
Q20.75 9.71875 23.5781 9.71875
L40.7188 10.2031
Q46.8281 10.2031 50.2188 7.21875
Q53.6094 4.25 53.6094 -1.21875
Q53.6094 -9.85938 45.8906 -14.9844
Q38.1875 -20.125 27.875 -20.125
Q19.4375 -20.125 14.0625 -16.5781
Q8.6875 -13.0312 8.6875 -7.42188
Q8.6875 -1.3125 17 2.875
Q10.1094 6.10938 10.1094 10.7969
Q10.1094 16.1562 19 20.7969
Q14.8906 23.2969 12.6875 27.25
Q10.5 31.2031 10.5 35.5938
Q10.5 42.7812 15.375 47.3906
Q20.2656 52 27.5938 52
Q32.8594 52 37.1094 49.8125
L52.2031 52.0938
L52.2031 44.6719
L42.4844 44.6719
Q44.6719 40.8281 44.6719 35.5938
Q44.6719 28.6562 39.8438 23.875
Q35.0156 19.0938 27.5938 19.0938
Q26.0312 19.0938 24.6094 19.1875
M27.5938 25
Q31.7812 25 34.4375 27.9062
Q37.1094 30.8125 37.1094 35.5
Q37.1094 40.4375 34.5156 43.2188
Q31.9375 46 27.5938 46
Q23.5312 46 20.7656 43.0938
Q18.0156 40.1875 18.0156 35.5
Q18.0156 30.9062 20.7656 27.9531
Q23.5312 25 27.5938 25
M27.875 -14.2031
Q35.4062 -14.2031 40.7031 -10.8594
Q46 -7.51562 46 -2.59375
Q46 2.48438 38.4844 2.48438
Q35.9844 2.48438 29.8906 2.20312
Q26.0312 2 23.8281 2
Q22.75 2 20.4844 0.234375
Q18.2188 -1.51562 17.0156 -3.29688
Q15.8281 -5.07812 15.8281 -6.98438
Q15.8281 -9.96875 19.1406 -12.0781
Q22.4688 -14.2031 27.875 -14.2031" id="AndaleMono-67"/>
      <path d="
M49.5156 0
L41.8906 0
L41.8906 7.32812
Q39.5469 3.5625 35.1719 1.125
Q30.8125 -1.3125 25.9844 -1.3125
Q17.2344 -1.3125 12.1562 6.46875
Q7.07812 14.2656 7.07812 26.2188
Q7.07812 37.4062 12.375 44.75
Q17.6719 52.0938 26.4219 52.0938
Q36.0312 52.0938 41.8906 44.2812
L41.8906 68.8906
L49.5156 68.8906
z

M41.8906 15.5781
L41.8906 36.7188
Q36.4219 45.5156 28.7188 45.5156
Q22.4062 45.5156 18.75 39.9219
Q15.0938 34.3281 15.0938 25.7812
Q15.0938 17 18.5312 11.25
Q21.9688 5.51562 27.9844 5.51562
Q30.8594 5.51562 33.7812 7.07812
Q36.7188 8.64062 39.2969 11.7656
Q41.8906 14.8906 41.8906 15.5781" id="AndaleMono-64"/>
      <path d="
M51.2188 25.2031
L16.3125 25.2031
Q16.3125 16.5469 21.3125 10.9375
Q26.3125 5.32812 33.5938 5.32812
Q40.5312 5.32812 47.9062 7.8125
L49.2188 1.70312
Q42.4844 -1.3125 33.5 -1.3125
Q22.1719 -1.3125 15.2344 5.95312
Q8.29688 13.2344 8.29688 25.5938
Q8.29688 37.7031 14.5156 44.8906
Q20.75 52.0938 30.6094 52.0938
Q39.4062 52.0938 45.3125 45.4062
Q51.2188 38.7188 51.2188 27.5938
z

M42.9219 31.3906
Q42.9219 37.3594 39.2031 41.4375
Q35.5 45.5156 30.9062 45.5156
Q25 45.5156 21.1094 41.6094
Q17.2344 37.7031 16.7969 31.3906
z
" id="AndaleMono-65"/>
      <path id="AndaleMono-20"/>
      <path d="
M57.4219 0
L49.0312 0
L41.4062 24.125
L18.7969 24.125
L11.0781 0
L2.78125 0
L25.2969 68.8906
L34.9062 68.8906
z

M39.1094 31.1094
L30.0781 59.625
L21.0938 31.1094
z
" id="AndaleMono-41"/>
      <path d="
M29.9844 52.0938
Q40.4844 52.0938 46.6719 44.7656
Q52.875 37.4531 52.875 25.4844
Q52.875 13.4219 46.6719 6.04688
Q40.4844 -1.3125 29.9844 -1.3125
Q19.4375 -1.3125 13.25 6.03125
Q7.07812 13.375 7.07812 25.4844
Q7.07812 37.5 13.2812 44.7969
Q19.4844 52.0938 29.9844 52.0938
M29.9844 5.32812
Q36.9219 5.32812 40.9219 11.1875
Q44.9219 17.0469 44.9219 25.3906
Q44.9219 34.1875 40.9688 39.8438
Q37.0156 45.5156 29.9844 45.5156
Q22.9062 45.5156 19 39.9219
Q15.0938 34.3281 15.0938 25.3906
Q15.0938 16.8906 19.0469 11.1094
Q23 5.32812 29.9844 5.32812" id="AndaleMono-6f"/>
      <path d="
M49.7031 0
L42.0938 0
L42.0938 32.625
Q42.0938 39.4062 39.9219 42.4531
Q37.75 45.5156 33.1094 45.5156
Q26.125 45.5156 18.1094 36.8125
L18.1094 0
L10.5 0
L10.5 50.875
L18.1094 50.875
L18.1094 43.4062
Q26.3125 52.0938 35.4062 52.0938
Q49.7031 52.0938 49.7031 34.8125
z
" id="AndaleMono-6e"/>
      <path d="
M49.6094 0
L42 0
L42 7.51562
Q33.7969 -1.21875 24.7031 -1.21875
Q10.4062 -1.21875 10.4062 16.1094
L10.4062 50.875
L18.0156 50.875
L18.0156 18.3125
Q18.0156 11.8125 20.0625 8.60938
Q22.125 5.42188 27 5.42188
Q33.9844 5.42188 42 14.1094
L42 50.875
L49.6094 50.875
z
" id="AndaleMono-75"/>
      <path d="
M44 23.7812
L14.9844 23.7812
L14.9844 31.2031
L44 31.2031
z
" id="AndaleMono-2d"/>
      <path d="
M52.2969 4.29688
Q44.1875 -1.3125 33.5 -1.3125
Q20.125 -1.3125 13.1562 7.85938
Q6.20312 17.0469 6.20312 34.4219
Q6.20312 51.2188 12.9375 60.7188
Q19.6719 70.2188 33.5 70.2188
Q38.4844 70.2188 43.3594 68.9375
Q48.25 67.6719 51.2188 65.5781
L48.5781 59.2812
Q41.7031 63.1875 33.5 63.1875
Q23.9688 63.1875 19.3281 56.2656
Q14.7031 49.3594 14.7031 34.4219
Q14.7031 5.71875 33.5 5.71875
Q41.4531 5.71875 49.8125 10.5938
z
" id="AndaleMono-43"/>
     </defs>
     <g style="fill:#555555;" transform="translate(171.5146875 319.9278125)scale(0.12 -0.12)">
      <use xlink:href="#AndaleMono-43"/>
      <use x="60.009765625" xlink:href="#AndaleMono-6f"/>
      <use x="120.01953125" xlink:href="#AndaleMono-2d"/>
      <use x="180.029296875" xlink:href="#AndaleMono-66"/>
      <use x="240.0390625" xlink:href="#AndaleMono-6f"/>
      <use x="300.048828125" xlink:href="#AndaleMono-75"/>
      <use x="360.05859375" xlink:href="#AndaleMono-6e"/>
      <use x="420.068359375" xlink:href="#AndaleMono-64"/>
      <use x="480.078125" xlink:href="#AndaleMono-65"/>
      <use x="540.087890625" xlink:href="#AndaleMono-72"/>
      <use x="600.09765625" xlink:href="#AndaleMono-20"/>
      <use x="660.107421875" xlink:href="#AndaleMono-41"/>
      <use x="720.1171875" xlink:href="#AndaleMono-67"/>
      <use x="780.126953125" xlink:href="#AndaleMono-65"/>
     </g>
    </g>
   </g>
   <g id="matplotlib.axis_2">
    <g id="ytick_1">
     <g id="line2d_28">
      <path clip-path="url(#p63b29d1948)" d="
M54 291.6
L388.8 291.6" style="fill:none;stroke:#000000;stroke-dasharray:1.000000,3.000000;stroke-dashoffset:0.0;stroke-width:0.5;"/>
     </g>
     <g id="line2d_29">
      <g>
       <use style="fill:#555555;stroke:#555555;stroke-width:0.5;" x="54.0" xlink:href="#m8bc147ca23" y="291.6"/>
      </g>
     </g>
     <g id="line2d_30">
      <g>
       <use style="fill:#555555;stroke:#555555;stroke-width:0.5;" x="388.8" xlink:href="#m8bc147ca23" y="291.6"/>
      </g>
     </g>
     <g id="text_11">
      <!-- 0.0 -->
      <defs>
       <path d="
M29.6875 11.1875
Q32.2812 11.1875 34.0312 9.42188
Q35.7969 7.67188 35.7969 5.07812
Q35.7969 2.4375 34.0156 0.5625
Q32.2344 -1.3125 29.6875 -1.3125
Q27.2031 -1.3125 25.4375 0.5625
Q23.6875 2.4375 23.6875 5.07812
Q23.6875 7.71875 25.4219 9.45312
Q27.1562 11.1875 29.6875 11.1875" id="AndaleMono-2e"/>
      </defs>
      <g style="fill:#555555;" transform="translate(31.4546875 294.03828125)scale(0.1 -0.1)">
       <use xlink:href="#AndaleMono-30"/>
       <use x="60.009765625" xlink:href="#AndaleMono-2e"/>
       <use x="120.01953125" xlink:href="#AndaleMono-30"/>
      </g>
     </g>
    </g>
    <g id="ytick_2">
     <g id="line2d_31">
      <path clip-path="url(#p63b29d1948)" d="
M54 239.76
L388.8 239.76" style="fill:none;stroke:#000000;stroke-dasharray:1.000000,3.000000;stroke-dashoffset:0.0;stroke-width:0.5;"/>
     </g>
     <g id="line2d_32">
      <g>
       <use style="fill:#555555;stroke:#555555;stroke-width:0.5;" x="54.0" xlink:href="#m8bc147ca23" y="239.76"/>
      </g>
     </g>
     <g id="line2d_33">
      <g>
       <use style="fill:#555555;stroke:#555555;stroke-width:0.5;" x="388.8" xlink:href="#m8bc147ca23" y="239.76"/>
      </g>
     </g>
     <g id="text_12">
      <!-- 0.2 -->
      <g style="fill:#555555;" transform="translate(31.9234375 242.19828125)scale(0.1 -0.1)">
       <use xlink:href="#AndaleMono-30"/>
       <use x="60.009765625" xlink:href="#AndaleMono-2e"/>
       <use x="120.01953125" xlink:href="#AndaleMono-32"/>
      </g>
     </g>
    </g>
    <g id="ytick_3">
     <g id="line2d_34">
      <path clip-path="url(#p63b29d1948)" d="
M54 187.92
L388.8 187.92" style="fill:none;stroke:#000000;stroke-dasharray:1.000000,3.000000;stroke-dashoffset:0.0;stroke-width:0.5;"/>
     </g>
     <g id="line2d_35">
      <g>
       <use style="fill:#555555;stroke:#555555;stroke-width:0.5;" x="54.0" xlink:href="#m8bc147ca23" y="187.92"/>
      </g>
     </g>
     <g id="line2d_36">
      <g>
       <use style="fill:#555555;stroke:#555555;stroke-width:0.5;" x="388.8" xlink:href="#m8bc147ca23" y="187.92"/>
      </g>
     </g>
     <g id="text_13">
      <!-- 0.4 -->
      <g style="fill:#555555;" transform="translate(31.475 190.35828125)scale(0.1 -0.1)">
       <use xlink:href="#AndaleMono-30"/>
       <use x="60.009765625" xlink:href="#AndaleMono-2e"/>
       <use x="120.01953125" xlink:href="#AndaleMono-34"/>
      </g>
     </g>
    </g>
    <g id="ytick_4">
     <g id="line2d_37">
      <path clip-path="url(#p63b29d1948)" d="
M54 136.08
L388.8 136.08" style="fill:none;stroke:#000000;stroke-dasharray:1.000000,3.000000;stroke-dashoffset:0.0;stroke-width:0.5;"/>
     </g>
     <g id="line2d_38">
      <g>
       <use style="fill:#555555;stroke:#555555;stroke-width:0.5;" x="54.0" xlink:href="#m8bc147ca23" y="136.08"/>
      </g>
     </g>
     <g id="line2d_39">
      <g>
       <use style="fill:#555555;stroke:#555555;stroke-width:0.5;" x="388.8" xlink:href="#m8bc147ca23" y="136.08"/>
      </g>
     </g>
     <g id="text_14">
      <!-- 0.6 -->
      <g style="fill:#555555;" transform="translate(31.5046875 138.51828125)scale(0.1 -0.1)">
       <use xlink:href="#AndaleMono-30"/>
       <use x="60.009765625" xlink:href="#AndaleMono-2e"/>
       <use x="120.01953125" xlink:href="#AndaleMono-36"/>
      </g>
     </g>
    </g>
    <g id="ytick_5">
     <g id="line2d_40">
      <path clip-path="url(#p63b29d1948)" d="
M54 84.24
L388.8 84.24" style="fill:none;stroke:#000000;stroke-dasharray:1.000000,3.000000;stroke-dashoffset:0.0;stroke-width:0.5;"/>
     </g>
     <g id="line2d_41">
      <g>
       <use style="fill:#555555;stroke:#555555;stroke-width:0.5;" x="54.0" xlink:href="#m8bc147ca23" y="84.24"/>
      </g>
     </g>
     <g id="line2d_42">
      <g>
       <use style="fill:#555555;stroke:#555555;stroke-width:0.5;" x="388.8" xlink:href="#m8bc147ca23" y="84.24"/>
      </g>
     </g>
     <g id="text_15">
      <!-- 0.8 -->
      <g style="fill:#555555;" transform="translate(31.54375 86.67828125)scale(0.1 -0.1)">
       <use xlink:href="#AndaleMono-30"/>
       <use x="60.009765625" xlink:href="#AndaleMono-2e"/>
       <use x="120.01953125" xlink:href="#AndaleMono-38"/>
      </g>
     </g>
    </g>
    <g id="ytick_6">
     <g id="line2d_43">
      <path clip-path="url(#p63b29d1948)" d="
M54 32.4
L388.8 32.4" style="fill:none;stroke:#000000;stroke-dasharray:1.000000,3.000000;stroke-dashoffset:0.0;stroke-width:0.5;"/>
     </g>
     <g id="line2d_44">
      <g>
       <use style="fill:#555555;stroke:#555555;stroke-width:0.5;" x="54.0" xlink:href="#m8bc147ca23" y="32.4"/>
      </g>
     </g>
     <g id="line2d_45">
      <g>
       <use style="fill:#555555;stroke:#555555;stroke-width:0.5;" x="388.8" xlink:href="#m8bc147ca23" y="32.4"/>
      </g>
     </g>
     <g id="text_16">
      <!-- 1.0 -->
      <g style="fill:#555555;" transform="translate(32.0859375 34.83828125)scale(0.1 -0.1)">
       <use xlink:href="#AndaleMono-31"/>
       <use x="60.009765625" xlink:href="#AndaleMono-2e"/>
       <use x="120.01953125" xlink:href="#AndaleMono-30"/>
      </g>
     </g>
    </g>
    <g id="text_17">
     <!-- Co-founder Half-life -->
     <defs>
      <path d="
M49.8125 0
L41.7969 0
L41.7969 34.1875
L18.2188 34.1875
L18.2188 0
L10.2031 0
L10.2031 68.8906
L18.2188 68.8906
L18.2188 41.2188
L41.7969 41.2188
L41.7969 68.8906
L49.8125 68.8906
z
" id="AndaleMono-48"/>
      <path d="
M46 0
L25.2031 0
L25.2031 62.3125
L11.9219 62.3125
L11.9219 68.8906
L32.8125 68.8906
L32.8125 6.59375
L46 6.59375
z
" id="AndaleMono-6c"/>
      <path d="
M33.2969 70.125
Q35.4531 70.125 36.9688 68.5781
Q38.4844 67.0469 38.4844 64.8906
Q38.4844 62.6406 36.9844 61.125
Q35.5 59.625 33.2969 59.625
Q31.2969 59.625 29.75 61.2031
Q28.2188 62.7969 28.2188 64.8906
Q28.2188 67 29.75 68.5625
Q31.2969 70.125 33.2969 70.125
M37.0156 0
L29.3906 0
L29.3906 44.2812
L14.4062 44.2812
L14.4062 50.875
L37.0156 50.875
z
" id="AndaleMono-69"/>
      <path d="
M50.9844 0
L43.4062 0
Q42.4844 3.07812 42.4844 8.20312
Q35.9844 -1.3125 24.8125 -1.3125
Q19.1406 -1.3125 14.8125 2.70312
Q10.5 6.73438 10.5 13.0938
Q10.5 16.8438 12.0156 19.7188
Q13.5312 22.6094 16.4531 24.5781
Q19.3906 26.5625 23.5781 27.7031
Q27.7812 28.8594 33.5469 29.2969
L42.0938 29.9844
L42.0938 32.4219
Q42.0938 45.5156 29.8906 45.5156
Q27 45.5156 22.5781 44.2656
Q18.1719 43.0156 14.9844 41.3125
L12.9844 46.7812
Q23.3906 52.0938 32.3281 52.0938
Q49.7031 52.0938 49.7031 33.6875
L49.7031 11.8125
Q49.7031 5.17188 50.9844 0
M42.0938 15.0938
L42.0938 24.3125
Q31.7812 23.3906 27.9531 22.5781
Q24.125 21.7812 21.3125 19.5781
Q18.5 17.3906 18.5 13.625
Q18.5 10.2031 20.8906 8.09375
Q23.2969 6 27 6
Q31.0625 6 35.0625 8.42188
Q39.0625 10.8438 42.0938 15.0938" id="AndaleMono-61"/>
     </defs>
     <g style="fill:#555555;" transform="translate(24.0396875 233.4909375)rotate(-90.0)scale(0.12 -0.12)">
      <use xlink:href="#AndaleMono-43"/>
      <use x="60.009765625" xlink:href="#AndaleMono-6f"/>
      <use x="120.01953125" xlink:href="#AndaleMono-2d"/>
      <use x="180.029296875" xlink:href="#AndaleMono-66"/>
      <use x="240.0390625" xlink:href="#AndaleMono-6f"/>
      <use x="300.048828125" xlink:href="#AndaleMono-75"/>
      <use x="360.05859375" xlink:href="#AndaleMono-6e"/>
      <use x="420.068359375" xlink:href="#AndaleMono-64"/>
      <use x="480.078125" xlink:href="#AndaleMono-65"/>
      <use x="540.087890625" xlink:href="#AndaleMono-72"/>
      <use x="600.09765625" xlink:href="#AndaleMono-20"/>
      <use x="660.107421875" xlink:href="#AndaleMono-48"/>
      <use x="720.1171875" xlink:href="#AndaleMono-61"/>
      <use x="780.126953125" xlink:href="#AndaleMono-6c"/>
      <use x="840.13671875" xlink:href="#AndaleMono-66"/>
      <use x="900.146484375" xlink:href="#AndaleMono-2d"/>
      <use x="960.15625" xlink:href="#AndaleMono-6c"/>
      <use x="1020.16601562" xlink:href="#AndaleMono-69"/>
      <use x="1080.17578125" xlink:href="#AndaleMono-66"/>
      <use x="1140.18554688" xlink:href="#AndaleMono-65"/>
     </g>
    </g>
   </g>
   <g id="PolyCollection_1">
    <defs>
     <path d="
M54 -32.4
L54 -290.747
L54.3351 -289.921
L54.6703 -289.097
L55.0054 -288.276
L55.3405 -287.458
L55.6757 -286.642
L56.0108 -285.829
L56.3459 -285.018
L56.6811 -284.211
L57.0162 -283.405
L57.3514 -282.603
L57.6865 -281.802
L58.0216 -281.005
L58.3568 -280.21
L58.6919 -279.417
L59.027 -278.627
L59.3622 -277.84
L59.6973 -277.055
L60.0324 -276.272
L60.3676 -275.492
L60.7027 -274.715
L61.0378 -273.94
L61.373 -273.168
L61.7081 -272.398
L62.0432 -271.63
L62.3784 -270.865
L62.7135 -270.102
L63.0486 -269.342
L63.3838 -268.584
L63.7189 -267.829
L64.0541 -267.076
L64.3892 -266.326
L64.7243 -265.578
L65.0595 -264.832
L65.3946 -264.089
L65.7297 -263.348
L66.0649 -262.609
L66.4 -261.873
L66.7351 -261.139
L67.0703 -260.407
L67.4054 -259.678
L67.7405 -258.951
L68.0757 -258.227
L68.4108 -257.505
L68.7459 -256.785
L69.0811 -256.067
L69.4162 -255.352
L69.7514 -254.639
L70.0865 -253.928
L70.4216 -253.22
L70.7568 -252.513
L71.0919 -251.809
L71.427 -251.108
L71.7622 -250.408
L72.0973 -249.711
L72.4324 -249.016
L72.7676 -248.323
L73.1027 -247.633
L73.4378 -246.944
L73.773 -246.258
L74.1081 -245.574
L74.4432 -244.893
L74.7784 -244.213
L75.1135 -243.536
L75.4486 -242.86
L75.7838 -242.187
L76.1189 -241.516
L76.4541 -240.848
L76.7892 -240.181
L77.1243 -239.517
L77.4595 -238.854
L77.7946 -238.194
L78.1297 -237.536
L78.4649 -236.88
L78.8 -236.226
L79.1351 -235.574
L79.4703 -234.924
L79.8054 -234.276
L80.1405 -233.631
L80.4757 -232.987
L80.8108 -232.346
L81.1459 -231.706
L81.4811 -231.069
L81.8162 -230.434
L82.1514 -229.8
L82.4865 -229.169
L82.8216 -228.54
L83.1568 -227.912
L83.4919 -227.287
L83.827 -226.664
L84.1622 -226.043
L84.4973 -225.423
L84.8324 -224.806
L85.1676 -224.191
L85.5027 -223.577
L85.8378 -222.966
L86.173 -222.357
L86.5081 -221.749
L86.8432 -221.143
L87.1784 -220.54
L87.5135 -219.938
L87.8486 -219.338
L88.1838 -218.741
L88.5189 -218.145
L88.8541 -217.551
L89.1892 -216.958
L89.5243 -216.368
L89.8595 -215.78
L90.1946 -215.193
L90.5297 -214.609
L90.8649 -214.026
L91.2 -213.445
L91.5351 -212.866
L91.8703 -212.289
L92.2054 -211.714
L92.5405 -211.14
L92.8757 -210.569
L93.2108 -209.999
L93.5459 -209.431
L93.8811 -208.865
L94.2162 -208.3
L94.5514 -207.738
L94.8865 -207.177
L95.2216 -206.618
L95.5568 -206.061
L95.8919 -205.506
L96.227 -204.952
L96.5622 -204.4
L96.8973 -203.85
L97.2324 -203.302
L97.5676 -202.755
L97.9027 -202.211
L98.2378 -201.667
L98.573 -201.126
L98.9081 -200.587
L99.2432 -200.049
L99.5784 -199.512
L99.9135 -198.978
L100.249 -198.445
L100.584 -197.914
L100.919 -197.385
L101.254 -196.857
L101.589 -196.331
L101.924 -195.807
L102.259 -195.285
L102.595 -194.764
L102.93 -194.244
L103.265 -193.727
L103.6 -193.211
L103.935 -192.697
L104.27 -192.184
L104.605 -191.673
L104.941 -191.164
L105.276 -190.656
L105.611 -190.15
L105.946 -189.645
L106.281 -189.142
L106.616 -188.641
L106.951 -188.141
L107.286 -187.643
L107.622 -187.147
L107.957 -186.652
L108.292 -186.159
L108.627 -185.667
L108.962 -185.177
L109.297 -184.688
L109.632 -184.201
L109.968 -183.716
L110.303 -183.232
L110.638 -182.749
L110.973 -182.268
L111.308 -181.789
L111.643 -181.311
L111.978 -180.835
L112.314 -180.361
L112.649 -179.887
L112.984 -179.416
L113.319 -178.945
L113.654 -178.477
L113.989 -178.01
L114.324 -177.544
L114.659 -177.08
L114.995 -176.617
L115.33 -176.156
L115.665 -175.696
L116 -175.238
L116.335 -174.781
L116.67 -174.326
L117.005 -173.872
L117.341 -173.419
L117.676 -172.968
L118.011 -172.519
L118.346 -172.071
L118.681 -171.624
L119.016 -171.179
L119.351 -170.735
L119.686 -170.293
L120.022 -169.852
L120.357 -169.412
L120.692 -168.974
L121.027 -168.537
L121.362 -168.102
L121.697 -167.668
L122.032 -167.235
L122.368 -166.804
L122.703 -166.374
L123.038 -165.946
L123.373 -165.518
L123.708 -165.093
L124.043 -164.668
L124.378 -164.245
L124.714 -163.824
L125.049 -163.403
L125.384 -162.984
L125.719 -162.567
L126.054 -162.151
L126.389 -161.736
L126.724 -161.322
L127.059 -160.91
L127.395 -160.499
L127.73 -160.089
L128.065 -159.681
L128.4 -159.274
L128.735 -158.868
L129.07 -158.463
L129.405 -158.06
L129.741 -157.658
L130.076 -157.258
L130.411 -156.859
L130.746 -156.46
L131.081 -156.064
L131.416 -155.668
L131.751 -155.274
L132.086 -154.881
L132.422 -154.489
L132.757 -154.099
L133.092 -153.71
L133.427 -153.322
L133.762 -152.935
L134.097 -152.55
L134.432 -152.165
L134.768 -151.782
L135.103 -151.4
L135.438 -151.02
L135.773 -150.641
L136.108 -150.262
L136.443 -149.885
L136.778 -149.51
L137.114 -149.135
L137.449 -148.762
L137.784 -148.39
L138.119 -148.019
L138.454 -147.649
L138.789 -147.28
L139.124 -146.913
L139.459 -146.547
L139.795 -146.182
L140.13 -145.818
L140.465 -145.455
L140.8 -145.094
L141.135 -144.733
L141.47 -144.374
L141.805 -144.016
L142.141 -143.659
L142.476 -143.303
L142.811 -142.948
L143.146 -142.595
L143.481 -142.242
L143.816 -141.891
L144.151 -141.541
L144.486 -141.192
L144.822 -140.844
L145.157 -140.497
L145.492 -140.152
L145.827 -139.807
L146.162 -139.463
L146.497 -139.121
L146.832 -138.78
L147.168 -138.44
L147.503 -138.1
L147.838 -137.762
L148.173 -137.425
L148.508 -137.09
L148.843 -136.755
L149.178 -136.421
L149.514 -136.088
L149.849 -135.757
L150.184 -135.426
L150.519 -135.097
L150.854 -134.768
L151.189 -134.441
L151.524 -134.115
L151.859 -133.789
L152.195 -133.465
L152.53 -133.142
L152.865 -132.82
L153.2 -132.498
L153.535 -132.178
L153.87 -131.859
L154.205 -131.541
L154.541 -131.224
L154.876 -130.908
L155.211 -130.593
L155.546 -130.279
L155.881 -129.966
L156.216 -129.654
L156.551 -129.343
L156.886 -129.033
L157.222 -128.724
L157.557 -128.416
L157.892 -128.109
L158.227 -127.803
L158.562 -127.498
L158.897 -127.193
L159.232 -126.89
L159.568 -126.588
L159.903 -126.287
L160.238 -125.987
L160.573 -125.687
L160.908 -125.389
L161.243 -125.092
L161.578 -124.795
L161.914 -124.5
L162.249 -124.205
L162.584 -123.912
L162.919 -123.619
L163.254 -123.327
L163.589 -123.036
L163.924 -122.746
L164.259 -122.458
L164.595 -122.17
L164.93 -121.882
L165.265 -121.596
L165.6 -121.311
L165.935 -121.027
L166.27 -120.743
L166.605 -120.461
L166.941 -120.179
L167.276 -119.898
L167.611 -119.619
L167.946 -119.34
L168.281 -119.062
L168.616 -118.784
L168.951 -118.508
L169.286 -118.233
L169.622 -117.958
L169.957 -117.685
L170.292 -117.412
L170.627 -117.14
L170.962 -116.869
L171.297 -116.599
L171.632 -116.33
L171.968 -116.061
L172.303 -115.794
L172.638 -115.527
L172.973 -115.261
L173.308 -114.996
L173.643 -114.732
L173.978 -114.469
L174.314 -114.206
L174.649 -113.945
L174.984 -113.684
L175.319 -113.424
L175.654 -113.165
L175.989 -112.906
L176.324 -112.649
L176.659 -112.392
L176.995 -112.136
L177.33 -111.881
L177.665 -111.627
L178 -111.374
L178.335 -111.121
L178.67 -110.87
L179.005 -110.619
L179.341 -110.368
L179.676 -110.119
L180.011 -109.871
L180.346 -109.623
L180.681 -109.376
L181.016 -109.13
L181.351 -108.884
L181.686 -108.64
L182.022 -108.396
L182.357 -108.153
L182.692 -107.911
L183.027 -107.669
L183.362 -107.428
L183.697 -107.188
L184.032 -106.949
L184.368 -106.711
L184.703 -106.473
L185.038 -106.236
L185.373 -106
L185.708 -105.765
L186.043 -105.53
L186.378 -105.296
L186.714 -105.063
L187.049 -104.831
L187.384 -104.599
L187.719 -104.368
L188.054 -104.138
L188.389 -103.909
L188.724 -103.68
L189.059 -103.452
L189.395 -103.225
L189.73 -102.998
L190.065 -102.772
L190.4 -102.547
L190.735 -102.323
L191.07 -102.099
L191.405 -101.877
L191.741 -101.654
L192.076 -101.433
L192.411 -101.212
L192.746 -100.992
L193.081 -100.773
L193.416 -100.554
L193.751 -100.336
L194.086 -100.119
L194.422 -99.9022
L194.757 -99.6864
L195.092 -99.4712
L195.427 -99.2567
L195.762 -99.0429
L196.097 -98.8297
L196.432 -98.6173
L196.768 -98.4055
L197.103 -98.1944
L197.438 -97.984
L197.773 -97.7743
L198.108 -97.5652
L198.443 -97.3568
L198.778 -97.149
L199.114 -96.942
L199.449 -96.7356
L199.784 -96.5298
L200.119 -96.3247
L200.454 -96.1203
L200.789 -95.9165
L201.124 -95.7134
L201.459 -95.5109
L201.795 -95.3091
L202.13 -95.1079
L202.465 -94.9073
L202.8 -94.7074
L203.135 -94.5082
L203.47 -94.3095
L203.805 -94.1115
L204.141 -93.9142
L204.476 -93.7175
L204.811 -93.5214
L205.146 -93.3259
L205.481 -93.131
L205.816 -92.9368
L206.151 -92.7432
L206.486 -92.5502
L206.822 -92.3579
L207.157 -92.1661
L207.492 -91.975
L207.827 -91.7845
L208.162 -91.5945
L208.497 -91.4052
L208.832 -91.2165
L209.168 -91.0284
L209.503 -90.8409
L209.838 -90.654
L210.173 -90.4677
L210.508 -90.282
L210.843 -90.0969
L211.178 -89.9124
L211.514 -89.7285
L211.849 -89.5451
L212.184 -89.3624
L212.519 -89.1802
L212.854 -88.9986
L213.189 -88.8176
L213.524 -88.6372
L213.859 -88.4573
L214.195 -88.278
L214.53 -88.0993
L214.865 -87.9212
L215.2 -87.7437
L215.535 -87.5667
L215.87 -87.3902
L216.205 -87.2144
L216.541 -87.0391
L216.876 -86.8643
L217.211 -86.6901
L217.546 -86.5165
L217.881 -86.3435
L218.216 -86.1709
L218.551 -85.999
L218.886 -85.8276
L219.222 -85.6567
L219.557 -85.4864
L219.892 -85.3166
L220.227 -85.1474
L220.562 -84.9787
L220.897 -84.8105
L221.232 -84.6429
L221.568 -84.4758
L221.903 -84.3093
L222.238 -84.1433
L222.573 -83.9778
L222.908 -83.8129
L223.243 -83.6484
L223.578 -83.4845
L223.914 -83.3212
L224.249 -83.1583
L224.584 -82.996
L224.919 -82.8342
L225.254 -82.6729
L225.589 -82.5121
L225.924 -82.3518
L226.259 -82.1921
L226.595 -82.0329
L226.93 -81.8741
L227.265 -81.7159
L227.6 -81.5582
L227.935 -81.401
L228.27 -81.2443
L228.605 -81.0881
L228.941 -80.9324
L229.276 -80.7771
L229.611 -80.6224
L229.946 -80.4682
L230.281 -80.3145
L230.616 -80.1613
L230.951 -80.0085
L231.286 -79.8563
L231.622 -79.7045
L231.957 -79.5532
L232.292 -79.4024
L232.627 -79.2521
L232.962 -79.1022
L233.297 -78.9529
L233.632 -78.804
L233.968 -78.6556
L234.303 -78.5077
L234.638 -78.3602
L234.973 -78.2132
L235.308 -78.0667
L235.643 -77.9207
L235.978 -77.7751
L236.314 -77.63
L236.649 -77.4853
L236.984 -77.3411
L237.319 -77.1974
L237.654 -77.0542
L237.989 -76.9113
L238.324 -76.769
L238.659 -76.6271
L238.995 -76.4857
L239.33 -76.3447
L239.665 -76.2041
L240 -76.064
L240.335 -75.9244
L240.67 -75.7852
L241.005 -75.6465
L241.341 -75.5082
L241.676 -75.3703
L242.011 -75.2329
L242.346 -75.0959
L242.681 -74.9593
L243.016 -74.8232
L243.351 -74.6876
L243.686 -74.5523
L244.022 -74.4175
L244.357 -74.2831
L244.692 -74.1492
L245.027 -74.0157
L245.362 -73.8826
L245.697 -73.7499
L246.032 -73.6177
L246.368 -73.4859
L246.703 -73.3545
L247.038 -73.2235
L247.373 -73.0929
L247.708 -72.9628
L248.043 -72.8331
L248.378 -72.7038
L248.714 -72.5749
L249.049 -72.4464
L249.384 -72.3183
L249.719 -72.1907
L250.054 -72.0634
L250.389 -71.9366
L250.724 -71.8101
L251.059 -71.6841
L251.395 -71.5584
L251.73 -71.4332
L252.065 -71.3084
L252.4 -71.1839
L252.735 -71.0599
L253.07 -70.9363
L253.405 -70.813
L253.741 -70.6902
L254.076 -70.5677
L254.411 -70.4457
L254.746 -70.324
L255.081 -70.2027
L255.416 -70.0818
L255.751 -69.9613
L256.086 -69.8412
L256.422 -69.7214
L256.757 -69.6021
L257.092 -69.4831
L257.427 -69.3645
L257.762 -69.2463
L258.097 -69.1285
L258.432 -69.011
L258.768 -68.8939
L259.103 -68.7772
L259.438 -68.6609
L259.773 -68.5449
L260.108 -68.4293
L260.443 -68.3141
L260.778 -68.1992
L261.114 -68.0847
L261.449 -67.9706
L261.784 -67.8569
L262.119 -67.7435
L262.454 -67.6304
L262.789 -67.5178
L263.124 -67.4055
L263.459 -67.2935
L263.795 -67.1819
L264.13 -67.0707
L264.465 -66.9598
L264.8 -66.8493
L265.135 -66.7391
L265.47 -66.6293
L265.805 -66.5198
L266.141 -66.4107
L266.476 -66.3019
L266.811 -66.1935
L267.146 -66.0854
L267.481 -65.9777
L267.816 -65.8703
L268.151 -65.7633
L268.486 -65.6566
L268.822 -65.5502
L269.157 -65.4442
L269.492 -65.3385
L269.827 -65.2332
L270.162 -65.1282
L270.497 -65.0235
L270.832 -64.9192
L271.168 -64.8152
L271.503 -64.7115
L271.838 -64.6082
L272.173 -64.5052
L272.508 -64.4025
L272.843 -64.3002
L273.178 -64.1981
L273.514 -64.0964
L273.849 -63.9951
L274.184 -63.894
L274.519 -63.7933
L274.854 -63.6929
L275.189 -63.5928
L275.524 -63.4931
L275.859 -63.3936
L276.195 -63.2945
L276.53 -63.1957
L276.865 -63.0972
L277.2 -62.9991
L277.535 -62.9012
L277.87 -62.8037
L278.205 -62.7064
L278.541 -62.6095
L278.876 -62.5129
L279.211 -62.4166
L279.546 -62.3206
L279.881 -62.2249
L280.216 -62.1295
L280.551 -62.0344
L280.886 -61.9397
L281.222 -61.8452
L281.557 -61.751
L281.892 -61.6572
L282.227 -61.5636
L282.562 -61.4703
L282.897 -61.3774
L283.232 -61.2847
L283.568 -61.1923
L283.903 -61.1002
L284.238 -61.0085
L284.573 -60.917
L284.908 -60.8258
L285.243 -60.7349
L285.578 -60.6442
L285.914 -60.5539
L286.249 -60.4639
L286.584 -60.3741
L286.919 -60.2847
L287.254 -60.1955
L287.589 -60.1066
L287.924 -60.018
L288.259 -59.9297
L288.595 -59.8416
L288.93 -59.7539
L289.265 -59.6664
L289.6 -59.5792
L289.935 -59.4922
L290.27 -59.4056
L290.605 -59.3192
L290.941 -59.2332
L291.276 -59.1473
L291.611 -59.0618
L291.946 -58.9765
L292.281 -58.8915
L292.616 -58.8068
L292.951 -58.7224
L293.286 -58.6382
L293.622 -58.5543
L293.957 -58.4706
L294.292 -58.3873
L294.627 -58.3041
L294.962 -58.2213
L295.297 -58.1387
L295.632 -58.0564
L295.968 -57.9744
L296.303 -57.8926
L296.638 -57.811
L296.973 -57.7298
L297.308 -57.6488
L297.643 -57.568
L297.978 -57.4875
L298.314 -57.4073
L298.649 -57.3273
L298.984 -57.2476
L299.319 -57.1681
L299.654 -57.0889
L299.989 -57.01
L300.324 -56.9313
L300.659 -56.8528
L300.995 -56.7746
L301.33 -56.6967
L301.665 -56.619
L302 -56.5415
L302.335 -56.4643
L302.67 -56.3873
L303.005 -56.3106
L303.341 -56.2342
L303.676 -56.1579
L304.011 -56.0819
L304.346 -56.0062
L304.681 -55.9307
L305.016 -55.8555
L305.351 -55.7805
L305.686 -55.7057
L306.022 -55.6311
L306.357 -55.5569
L306.692 -55.4828
L307.027 -55.409
L307.362 -55.3354
L307.697 -55.262
L308.032 -55.1889
L308.368 -55.116
L308.703 -55.0434
L309.038 -54.971
L309.373 -54.8988
L309.708 -54.8268
L310.043 -54.7551
L310.378 -54.6836
L310.714 -54.6124
L311.049 -54.5413
L311.384 -54.4705
L311.719 -54.3999
L312.054 -54.3296
L312.389 -54.2594
L312.724 -54.1895
L313.059 -54.1199
L313.395 -54.0504
L313.73 -53.9812
L314.065 -53.9121
L314.4 -53.8433
L314.735 -53.7748
L315.07 -53.7064
L315.405 -53.6383
L315.741 -53.5703
L316.076 -53.5026
L316.411 -53.4351
L316.746 -53.3679
L317.081 -53.3008
L317.416 -53.234
L317.751 -53.1673
L318.086 -53.1009
L318.422 -53.0347
L318.757 -52.9687
L319.092 -52.903
L319.427 -52.8374
L319.762 -52.772
L320.097 -52.7069
L320.432 -52.6419
L320.768 -52.5772
L321.103 -52.5127
L321.438 -52.4483
L321.773 -52.3842
L322.108 -52.3203
L322.443 -52.2566
L322.778 -52.1931
L323.114 -52.1298
L323.449 -52.0667
L323.784 -52.0038
L324.119 -51.9411
L324.454 -51.8786
L324.789 -51.8163
L325.124 -51.7542
L325.459 -51.6923
L325.795 -51.6306
L326.13 -51.5691
L326.465 -51.5078
L326.8 -51.4467
L327.135 -51.3858
L327.47 -51.3251
L327.805 -51.2646
L328.141 -51.2042
L328.476 -51.1441
L328.811 -51.0842
L329.146 -51.0244
L329.481 -50.9648
L329.816 -50.9055
L330.151 -50.8463
L330.486 -50.7873
L330.822 -50.7285
L331.157 -50.6699
L331.492 -50.6114
L331.827 -50.5532
L332.162 -50.4952
L332.497 -50.4373
L332.832 -50.3796
L333.168 -50.3221
L333.503 -50.2648
L333.838 -50.2076
L334.173 -50.1507
L334.508 -50.0939
L334.843 -50.0373
L335.178 -49.9809
L335.514 -49.9247
L335.849 -49.8687
L336.184 -49.8128
L336.519 -49.7571
L336.854 -49.7016
L337.189 -49.6463
L337.524 -49.5911
L337.859 -49.5361
L338.195 -49.4813
L338.53 -49.4267
L338.865 -49.3723
L339.2 -49.318
L339.535 -49.2639
L339.87 -49.2099
L340.205 -49.1562
L340.541 -49.1026
L340.876 -49.0492
L341.211 -48.9959
L341.546 -48.9429
L341.881 -48.89
L342.216 -48.8372
L342.551 -48.7846
L342.886 -48.7322
L343.222 -48.68
L343.557 -48.628
L343.892 -48.5761
L344.227 -48.5243
L344.562 -48.4728
L344.897 -48.4214
L345.232 -48.3701
L345.568 -48.319
L345.903 -48.2681
L346.238 -48.2174
L346.573 -48.1668
L346.908 -48.1164
L347.243 -48.0661
L347.578 -48.016
L347.914 -47.9661
L348.249 -47.9163
L348.584 -47.8667
L348.919 -47.8172
L349.254 -47.7679
L349.589 -47.7187
L349.924 -47.6698
L350.259 -47.6209
L350.595 -47.5722
L350.93 -47.5237
L351.265 -47.4754
L351.6 -47.4271
L351.935 -47.3791
L352.27 -47.3312
L352.605 -47.2834
L352.941 -47.2358
L353.276 -47.1884
L353.611 -47.1411
L353.946 -47.094
L354.281 -47.047
L354.616 -47.0001
L354.951 -46.9534
L355.286 -46.9069
L355.622 -46.8605
L355.957 -46.8142
L356.292 -46.7681
L356.627 -46.7222
L356.962 -46.6764
L357.297 -46.6307
L357.632 -46.5852
L357.968 -46.5399
L358.303 -46.4946
L358.638 -46.4496
L358.973 -46.4046
L359.308 -46.3598
L359.643 -46.3152
L359.978 -46.2707
L360.314 -46.2263
L360.649 -46.1821
L360.984 -46.138
L361.319 -46.0941
L361.654 -46.0503
L361.989 -46.0067
L362.324 -45.9631
L362.659 -45.9198
L362.995 -45.8765
L363.33 -45.8334
L363.665 -45.7905
L364 -45.7476
L364.335 -45.705
L364.67 -45.6624
L365.005 -45.62
L365.341 -45.5777
L365.676 -45.5356
L366.011 -45.4936
L366.346 -45.4517
L366.681 -45.4099
L367.016 -45.3683
L367.351 -45.3269
L367.686 -45.2855
L368.022 -45.2443
L368.357 -45.2032
L368.692 -45.1623
L369.027 -45.1215
L369.362 -45.0808
L369.697 -45.0402
L370.032 -44.9998
L370.368 -44.9595
L370.703 -44.9194
L371.038 -44.8793
L371.373 -44.8394
L371.708 -44.7996
L372.043 -44.76
L372.378 -44.7204
L372.714 -44.681
L373.049 -44.6418
L373.384 -44.6026
L373.719 -44.5636
L374.054 -44.5247
L374.389 -44.4859
L374.724 -44.4473
L375.059 -44.4087
L375.395 -44.3703
L375.73 -44.332
L376.065 -44.2939
L376.4 -44.2558
L376.735 -44.2179
L377.07 -44.1801
L377.405 -44.1425
L377.741 -44.1049
L378.076 -44.0675
L378.411 -44.0302
L378.746 -43.993
L379.081 -43.9559
L379.416 -43.9189
L379.751 -43.8821
L380.086 -43.8454
L380.422 -43.8088
L380.757 -43.7723
L381.092 -43.7359
L381.427 -43.6997
L381.762 -43.6635
L382.097 -43.6275
L382.432 -43.5916
L382.768 -43.5558
L383.103 -43.5201
L383.438 -43.4846
L383.773 -43.4491
L384.108 -43.4138
L384.443 -43.3786
L384.778 -43.3435
L385.114 -43.3085
L385.449 -43.2736
L385.784 -43.2388
L386.119 -43.2041
L386.454 -43.1696
L386.789 -43.1351
L387.124 -43.1008
L387.459 -43.0666
L387.795 -43.0325
L388.13 -42.9985
L388.465 -42.9646
L388.8 -42.9308
L388.8 -32.4
L388.8 -32.4
L388.465 -32.4
L388.13 -32.4
L387.795 -32.4
L387.459 -32.4
L387.124 -32.4
L386.789 -32.4
L386.454 -32.4
L386.119 -32.4
L385.784 -32.4
L385.449 -32.4
L385.114 -32.4
L384.778 -32.4
L384.443 -32.4
L384.108 -32.4
L383.773 -32.4
L383.438 -32.4
L383.103 -32.4
L382.768 -32.4
L382.432 -32.4
L382.097 -32.4
L381.762 -32.4
L381.427 -32.4
L381.092 -32.4
L380.757 -32.4
L380.422 -32.4
L380.086 -32.4
L379.751 -32.4
L379.416 -32.4
L379.081 -32.4
L378.746 -32.4
L378.411 -32.4
L378.076 -32.4
L377.741 -32.4
L377.405 -32.4
L377.07 -32.4
L376.735 -32.4
L376.4 -32.4
L376.065 -32.4
L375.73 -32.4
L375.395 -32.4
L375.059 -32.4
L374.724 -32.4
L374.389 -32.4
L374.054 -32.4
L373.719 -32.4
L373.384 -32.4
L373.049 -32.4
L372.714 -32.4
L372.378 -32.4
L372.043 -32.4
L371.708 -32.4
L371.373 -32.4
L371.038 -32.4
L370.703 -32.4
L370.368 -32.4
L370.032 -32.4
L369.697 -32.4
L369.362 -32.4
L369.027 -32.4
L368.692 -32.4
L368.357 -32.4
L368.022 -32.4
L367.686 -32.4
L367.351 -32.4
L367.016 -32.4
L366.681 -32.4
L366.346 -32.4
L366.011 -32.4
L365.676 -32.4
L365.341 -32.4
L365.005 -32.4
L364.67 -32.4
L364.335 -32.4
L364 -32.4
L363.665 -32.4
L363.33 -32.4
L362.995 -32.4
L362.659 -32.4
L362.324 -32.4
L361.989 -32.4
L361.654 -32.4
L361.319 -32.4
L360.984 -32.4
L360.649 -32.4
L360.314 -32.4
L359.978 -32.4
L359.643 -32.4
L359.308 -32.4
L358.973 -32.4
L358.638 -32.4
L358.303 -32.4
L357.968 -32.4
L357.632 -32.4
L357.297 -32.4
L356.962 -32.4
L356.627 -32.4
L356.292 -32.4
L355.957 -32.4
L355.622 -32.4
L355.286 -32.4
L354.951 -32.4
L354.616 -32.4
L354.281 -32.4
L353.946 -32.4
L353.611 -32.4
L353.276 -32.4
L352.941 -32.4
L352.605 -32.4
L352.27 -32.4
L351.935 -32.4
L351.6 -32.4
L351.265 -32.4
L350.93 -32.4
L350.595 -32.4
L350.259 -32.4
L349.924 -32.4
L349.589 -32.4
L349.254 -32.4
L348.919 -32.4
L348.584 -32.4
L348.249 -32.4
L347.914 -32.4
L347.578 -32.4
L347.243 -32.4
L346.908 -32.4
L346.573 -32.4
L346.238 -32.4
L345.903 -32.4
L345.568 -32.4
L345.232 -32.4
L344.897 -32.4
L344.562 -32.4
L344.227 -32.4
L343.892 -32.4
L343.557 -32.4
L343.222 -32.4
L342.886 -32.4
L342.551 -32.4
L342.216 -32.4
L341.881 -32.4
L341.546 -32.4
L341.211 -32.4
L340.876 -32.4
L340.541 -32.4
L340.205 -32.4
L339.87 -32.4
L339.535 -32.4
L339.2 -32.4
L338.865 -32.4
L338.53 -32.4
L338.195 -32.4
L337.859 -32.4
L337.524 -32.4
L337.189 -32.4
L336.854 -32.4
L336.519 -32.4
L336.184 -32.4
L335.849 -32.4
L335.514 -32.4
L335.178 -32.4
L334.843 -32.4
L334.508 -32.4
L334.173 -32.4
L333.838 -32.4
L333.503 -32.4
L333.168 -32.4
L332.832 -32.4
L332.497 -32.4
L332.162 -32.4
L331.827 -32.4
L331.492 -32.4
L331.157 -32.4
L330.822 -32.4
L330.486 -32.4
L330.151 -32.4
L329.816 -32.4
L329.481 -32.4
L329.146 -32.4
L328.811 -32.4
L328.476 -32.4
L328.141 -32.4
L327.805 -32.4
L327.47 -32.4
L327.135 -32.4
L326.8 -32.4
L326.465 -32.4
L326.13 -32.4
L325.795 -32.4
L325.459 -32.4
L325.124 -32.4
L324.789 -32.4
L324.454 -32.4
L324.119 -32.4
L323.784 -32.4
L323.449 -32.4
L323.114 -32.4
L322.778 -32.4
L322.443 -32.4
L322.108 -32.4
L321.773 -32.4
L321.438 -32.4
L321.103 -32.4
L320.768 -32.4
L320.432 -32.4
L320.097 -32.4
L319.762 -32.4
L319.427 -32.4
L319.092 -32.4
L318.757 -32.4
L318.422 -32.4
L318.086 -32.4
L317.751 -32.4
L317.416 -32.4
L317.081 -32.4
L316.746 -32.4
L316.411 -32.4
L316.076 -32.4
L315.741 -32.4
L315.405 -32.4
L315.07 -32.4
L314.735 -32.4
L314.4 -32.4
L314.065 -32.4
L313.73 -32.4
L313.395 -32.4
L313.059 -32.4
L312.724 -32.4
L312.389 -32.4
L312.054 -32.4
L311.719 -32.4
L311.384 -32.4
L311.049 -32.4
L310.714 -32.4
L310.378 -32.4
L310.043 -32.4
L309.708 -32.4
L309.373 -32.4
L309.038 -32.4
L308.703 -32.4
L308.368 -32.4
L308.032 -32.4
L307.697 -32.4
L307.362 -32.4
L307.027 -32.4
L306.692 -32.4
L306.357 -32.4
L306.022 -32.4
L305.686 -32.4
L305.351 -32.4
L305.016 -32.4
L304.681 -32.4
L304.346 -32.4
L304.011 -32.4
L303.676 -32.4
L303.341 -32.4
L303.005 -32.4
L302.67 -32.4
L302.335 -32.4
L302 -32.4
L301.665 -32.4
L301.33 -32.4
L300.995 -32.4
L300.659 -32.4
L300.324 -32.4
L299.989 -32.4
L299.654 -32.4
L299.319 -32.4
L298.984 -32.4
L298.649 -32.4
L298.314 -32.4
L297.978 -32.4
L297.643 -32.4
L297.308 -32.4
L296.973 -32.4
L296.638 -32.4
L296.303 -32.4
L295.968 -32.4
L295.632 -32.4
L295.297 -32.4
L294.962 -32.4
L294.627 -32.4
L294.292 -32.4
L293.957 -32.4
L293.622 -32.4
L293.286 -32.4
L292.951 -32.4
L292.616 -32.4
L292.281 -32.4
L291.946 -32.4
L291.611 -32.4
L291.276 -32.4
L290.941 -32.4
L290.605 -32.4
L290.27 -32.4
L289.935 -32.4
L289.6 -32.4
L289.265 -32.4
L288.93 -32.4
L288.595 -32.4
L288.259 -32.4
L287.924 -32.4
L287.589 -32.4
L287.254 -32.4
L286.919 -32.4
L286.584 -32.4
L286.249 -32.4
L285.914 -32.4
L285.578 -32.4
L285.243 -32.4
L284.908 -32.4
L284.573 -32.4
L284.238 -32.4
L283.903 -32.4
L283.568 -32.4
L283.232 -32.4
L282.897 -32.4
L282.562 -32.4
L282.227 -32.4
L281.892 -32.4
L281.557 -32.4
L281.222 -32.4
L280.886 -32.4
L280.551 -32.4
L280.216 -32.4
L279.881 -32.4
L279.546 -32.4
L279.211 -32.4
L278.876 -32.4
L278.541 -32.4
L278.205 -32.4
L277.87 -32.4
L277.535 -32.4
L277.2 -32.4
L276.865 -32.4
L276.53 -32.4
L276.195 -32.4
L275.859 -32.4
L275.524 -32.4
L275.189 -32.4
L274.854 -32.4
L274.519 -32.4
L274.184 -32.4
L273.849 -32.4
L273.514 -32.4
L273.178 -32.4
L272.843 -32.4
L272.508 -32.4
L272.173 -32.4
L271.838 -32.4
L271.503 -32.4
L271.168 -32.4
L270.832 -32.4
L270.497 -32.4
L270.162 -32.4
L269.827 -32.4
L269.492 -32.4
L269.157 -32.4
L268.822 -32.4
L268.486 -32.4
L268.151 -32.4
L267.816 -32.4
L267.481 -32.4
L267.146 -32.4
L266.811 -32.4
L266.476 -32.4
L266.141 -32.4
L265.805 -32.4
L265.47 -32.4
L265.135 -32.4
L264.8 -32.4
L264.465 -32.4
L264.13 -32.4
L263.795 -32.4
L263.459 -32.4
L263.124 -32.4
L262.789 -32.4
L262.454 -32.4
L262.119 -32.4
L261.784 -32.4
L261.449 -32.4
L261.114 -32.4
L260.778 -32.4
L260.443 -32.4
L260.108 -32.4
L259.773 -32.4
L259.438 -32.4
L259.103 -32.4
L258.768 -32.4
L258.432 -32.4
L258.097 -32.4
L257.762 -32.4
L257.427 -32.4
L257.092 -32.4
L256.757 -32.4
L256.422 -32.4
L256.086 -32.4
L255.751 -32.4
L255.416 -32.4
L255.081 -32.4
L254.746 -32.4
L254.411 -32.4
L254.076 -32.4
L253.741 -32.4
L253.405 -32.4
L253.07 -32.4
L252.735 -32.4
L252.4 -32.4
L252.065 -32.4
L251.73 -32.4
L251.395 -32.4
L251.059 -32.4
L250.724 -32.4
L250.389 -32.4
L250.054 -32.4
L249.719 -32.4
L249.384 -32.4
L249.049 -32.4
L248.714 -32.4
L248.378 -32.4
L248.043 -32.4
L247.708 -32.4
L247.373 -32.4
L247.038 -32.4
L246.703 -32.4
L246.368 -32.4
L246.032 -32.4
L245.697 -32.4
L245.362 -32.4
L245.027 -32.4
L244.692 -32.4
L244.357 -32.4
L244.022 -32.4
L243.686 -32.4
L243.351 -32.4
L243.016 -32.4
L242.681 -32.4
L242.346 -32.4
L242.011 -32.4
L241.676 -32.4
L241.341 -32.4
L241.005 -32.4
L240.67 -32.4
L240.335 -32.4
L240 -32.4
L239.665 -32.4
L239.33 -32.4
L238.995 -32.4
L238.659 -32.4
L238.324 -32.4
L237.989 -32.4
L237.654 -32.4
L237.319 -32.4
L236.984 -32.4
L236.649 -32.4
L236.314 -32.4
L235.978 -32.4
L235.643 -32.4
L235.308 -32.4
L234.973 -32.4
L234.638 -32.4
L234.303 -32.4
L233.968 -32.4
L233.632 -32.4
L233.297 -32.4
L232.962 -32.4
L232.627 -32.4
L232.292 -32.4
L231.957 -32.4
L231.622 -32.4
L231.286 -32.4
L230.951 -32.4
L230.616 -32.4
L230.281 -32.4
L229.946 -32.4
L229.611 -32.4
L229.276 -32.4
L228.941 -32.4
L228.605 -32.4
L228.27 -32.4
L227.935 -32.4
L227.6 -32.4
L227.265 -32.4
L226.93 -32.4
L226.595 -32.4
L226.259 -32.4
L225.924 -32.4
L225.589 -32.4
L225.254 -32.4
L224.919 -32.4
L224.584 -32.4
L224.249 -32.4
L223.914 -32.4
L223.578 -32.4
L223.243 -32.4
L222.908 -32.4
L222.573 -32.4
L222.238 -32.4
L221.903 -32.4
L221.568 -32.4
L221.232 -32.4
L220.897 -32.4
L220.562 -32.4
L220.227 -32.4
L219.892 -32.4
L219.557 -32.4
L219.222 -32.4
L218.886 -32.4
L218.551 -32.4
L218.216 -32.4
L217.881 -32.4
L217.546 -32.4
L217.211 -32.4
L216.876 -32.4
L216.541 -32.4
L216.205 -32.4
L215.87 -32.4
L215.535 -32.4
L215.2 -32.4
L214.865 -32.4
L214.53 -32.4
L214.195 -32.4
L213.859 -32.4
L213.524 -32.4
L213.189 -32.4
L212.854 -32.4
L212.519 -32.4
L212.184 -32.4
L211.849 -32.4
L211.514 -32.4
L211.178 -32.4
L210.843 -32.4
L210.508 -32.4
L210.173 -32.4
L209.838 -32.4
L209.503 -32.4
L209.168 -32.4
L208.832 -32.4
L208.497 -32.4
L208.162 -32.4
L207.827 -32.4
L207.492 -32.4
L207.157 -32.4
L206.822 -32.4
L206.486 -32.4
L206.151 -32.4
L205.816 -32.4
L205.481 -32.4
L205.146 -32.4
L204.811 -32.4
L204.476 -32.4
L204.141 -32.4
L203.805 -32.4
L203.47 -32.4
L203.135 -32.4
L202.8 -32.4
L202.465 -32.4
L202.13 -32.4
L201.795 -32.4
L201.459 -32.4
L201.124 -32.4
L200.789 -32.4
L200.454 -32.4
L200.119 -32.4
L199.784 -32.4
L199.449 -32.4
L199.114 -32.4
L198.778 -32.4
L198.443 -32.4
L198.108 -32.4
L197.773 -32.4
L197.438 -32.4
L197.103 -32.4
L196.768 -32.4
L196.432 -32.4
L196.097 -32.4
L195.762 -32.4
L195.427 -32.4
L195.092 -32.4
L194.757 -32.4
L194.422 -32.4
L194.086 -32.4
L193.751 -32.4
L193.416 -32.4
L193.081 -32.4
L192.746 -32.4
L192.411 -32.4
L192.076 -32.4
L191.741 -32.4
L191.405 -32.4
L191.07 -32.4
L190.735 -32.4
L190.4 -32.4
L190.065 -32.4
L189.73 -32.4
L189.395 -32.4
L189.059 -32.4
L188.724 -32.4
L188.389 -32.4
L188.054 -32.4
L187.719 -32.4
L187.384 -32.4
L187.049 -32.4
L186.714 -32.4
L186.378 -32.4
L186.043 -32.4
L185.708 -32.4
L185.373 -32.4
L185.038 -32.4
L184.703 -32.4
L184.368 -32.4
L184.032 -32.4
L183.697 -32.4
L183.362 -32.4
L183.027 -32.4
L182.692 -32.4
L182.357 -32.4
L182.022 -32.4
L181.686 -32.4
L181.351 -32.4
L181.016 -32.4
L180.681 -32.4
L180.346 -32.4
L180.011 -32.4
L179.676 -32.4
L179.341 -32.4
L179.005 -32.4
L178.67 -32.4
L178.335 -32.4
L178 -32.4
L177.665 -32.4
L177.33 -32.4
L176.995 -32.4
L176.659 -32.4
L176.324 -32.4
L175.989 -32.4
L175.654 -32.4
L175.319 -32.4
L174.984 -32.4
L174.649 -32.4
L174.314 -32.4
L173.978 -32.4
L173.643 -32.4
L173.308 -32.4
L172.973 -32.4
L172.638 -32.4
L172.303 -32.4
L171.968 -32.4
L171.632 -32.4
L171.297 -32.4
L170.962 -32.4
L170.627 -32.4
L170.292 -32.4
L169.957 -32.4
L169.622 -32.4
L169.286 -32.4
L168.951 -32.4
L168.616 -32.4
L168.281 -32.4
L167.946 -32.4
L167.611 -32.4
L167.276 -32.4
L166.941 -32.4
L166.605 -32.4
L166.27 -32.4
L165.935 -32.4
L165.6 -32.4
L165.265 -32.4
L164.93 -32.4
L164.595 -32.4
L164.259 -32.4
L163.924 -32.4
L163.589 -32.4
L163.254 -32.4
L162.919 -32.4
L162.584 -32.4
L162.249 -32.4
L161.914 -32.4
L161.578 -32.4
L161.243 -32.4
L160.908 -32.4
L160.573 -32.4
L160.238 -32.4
L159.903 -32.4
L159.568 -32.4
L159.232 -32.4
L158.897 -32.4
L158.562 -32.4
L158.227 -32.4
L157.892 -32.4
L157.557 -32.4
L157.222 -32.4
L156.886 -32.4
L156.551 -32.4
L156.216 -32.4
L155.881 -32.4
L155.546 -32.4
L155.211 -32.4
L154.876 -32.4
L154.541 -32.4
L154.205 -32.4
L153.87 -32.4
L153.535 -32.4
L153.2 -32.4
L152.865 -32.4
L152.53 -32.4
L152.195 -32.4
L151.859 -32.4
L151.524 -32.4
L151.189 -32.4
L150.854 -32.4
L150.519 -32.4
L150.184 -32.4
L149.849 -32.4
L149.514 -32.4
L149.178 -32.4
L148.843 -32.4
L148.508 -32.4
L148.173 -32.4
L147.838 -32.4
L147.503 -32.4
L147.168 -32.4
L146.832 -32.4
L146.497 -32.4
L146.162 -32.4
L145.827 -32.4
L145.492 -32.4
L145.157 -32.4
L144.822 -32.4
L144.486 -32.4
L144.151 -32.4
L143.816 -32.4
L143.481 -32.4
L143.146 -32.4
L142.811 -32.4
L142.476 -32.4
L142.141 -32.4
L141.805 -32.4
L141.47 -32.4
L141.135 -32.4
L140.8 -32.4
L140.465 -32.4
L140.13 -32.4
L139.795 -32.4
L139.459 -32.4
L139.124 -32.4
L138.789 -32.4
L138.454 -32.4
L138.119 -32.4
L137.784 -32.4
L137.449 -32.4
L137.114 -32.4
L136.778 -32.4
L136.443 -32.4
L136.108 -32.4
L135.773 -32.4
L135.438 -32.4
L135.103 -32.4
L134.768 -32.4
L134.432 -32.4
L134.097 -32.4
L133.762 -32.4
L133.427 -32.4
L133.092 -32.4
L132.757 -32.4
L132.422 -32.4
L132.086 -32.4
L131.751 -32.4
L131.416 -32.4
L131.081 -32.4
L130.746 -32.4
L130.411 -32.4
L130.076 -32.4
L129.741 -32.4
L129.405 -32.4
L129.07 -32.4
L128.735 -32.4
L128.4 -32.4
L128.065 -32.4
L127.73 -32.4
L127.395 -32.4
L127.059 -32.4
L126.724 -32.4
L126.389 -32.4
L126.054 -32.4
L125.719 -32.4
L125.384 -32.4
L125.049 -32.4
L124.714 -32.4
L124.378 -32.4
L124.043 -32.4
L123.708 -32.4
L123.373 -32.4
L123.038 -32.4
L122.703 -32.4
L122.368 -32.4
L122.032 -32.4
L121.697 -32.4
L121.362 -32.4
L121.027 -32.4
L120.692 -32.4
L120.357 -32.4
L120.022 -32.4
L119.686 -32.4
L119.351 -32.4
L119.016 -32.4
L118.681 -32.4
L118.346 -32.4
L118.011 -32.4
L117.676 -32.4
L117.341 -32.4
L117.005 -32.4
L116.67 -32.4
L116.335 -32.4
L116 -32.4
L115.665 -32.4
L115.33 -32.4
L114.995 -32.4
L114.659 -32.4
L114.324 -32.4
L113.989 -32.4
L113.654 -32.4
L113.319 -32.4
L112.984 -32.4
L112.649 -32.4
L112.314 -32.4
L111.978 -32.4
L111.643 -32.4
L111.308 -32.4
L110.973 -32.4
L110.638 -32.4
L110.303 -32.4
L109.968 -32.4
L109.632 -32.4
L109.297 -32.4
L108.962 -32.4
L108.627 -32.4
L108.292 -32.4
L107.957 -32.4
L107.622 -32.4
L107.286 -32.4
L106.951 -32.4
L106.616 -32.4
L106.281 -32.4
L105.946 -32.4
L105.611 -32.4
L105.276 -32.4
L104.941 -32.4
L104.605 -32.4
L104.27 -32.4
L103.935 -32.4
L103.6 -32.4
L103.265 -32.4
L102.93 -32.4
L102.595 -32.4
L102.259 -32.4
L101.924 -32.4
L101.589 -32.4
L101.254 -32.4
L100.919 -32.4
L100.584 -32.4
L100.249 -32.4
L99.9135 -32.4
L99.5784 -32.4
L99.2432 -32.4
L98.9081 -32.4
L98.573 -32.4
L98.2378 -32.4
L97.9027 -32.4
L97.5676 -32.4
L97.2324 -32.4
L96.8973 -32.4
L96.5622 -32.4
L96.227 -32.4
L95.8919 -32.4
L95.5568 -32.4
L95.2216 -32.4
L94.8865 -32.4
L94.5514 -32.4
L94.2162 -32.4
L93.8811 -32.4
L93.5459 -32.4
L93.2108 -32.4
L92.8757 -32.4
L92.5405 -32.4
L92.2054 -32.4
L91.8703 -32.4
L91.5351 -32.4
L91.2 -32.4
L90.8649 -32.4
L90.5297 -32.4
L90.1946 -32.4
L89.8595 -32.4
L89.5243 -32.4
L89.1892 -32.4
L88.8541 -32.4
L88.5189 -32.4
L88.1838 -32.4
L87.8486 -32.4
L87.5135 -32.4
L87.1784 -32.4
L86.8432 -32.4
L86.5081 -32.4
L86.173 -32.4
L85.8378 -32.4
L85.5027 -32.4
L85.1676 -32.4
L84.8324 -32.4
L84.4973 -32.4
L84.1622 -32.4
L83.827 -32.4
L83.4919 -32.4
L83.1568 -32.4
L82.8216 -32.4
L82.4865 -32.4
L82.1514 -32.4
L81.8162 -32.4
L81.4811 -32.4
L81.1459 -32.4
L80.8108 -32.4
L80.4757 -32.4
L80.1405 -32.4
L79.8054 -32.4
L79.4703 -32.4
L79.1351 -32.4
L78.8 -32.4
L78.4649 -32.4
L78.1297 -32.4
L77.7946 -32.4
L77.4595 -32.4
L77.1243 -32.4
L76.7892 -32.4
L76.4541 -32.4
L76.1189 -32.4
L75.7838 -32.4
L75.4486 -32.4
L75.1135 -32.4
L74.7784 -32.4
L74.4432 -32.4
L74.1081 -32.4
L73.773 -32.4
L73.4378 -32.4
L73.1027 -32.4
L72.7676 -32.4
L72.4324 -32.4
L72.0973 -32.4
L71.7622 -32.4
L71.427 -32.4
L71.0919 -32.4
L70.7568 -32.4
L70.4216 -32.4
L70.0865 -32.4
L69.7514 -32.4
L69.4162 -32.4
L69.0811 -32.4
L68.7459 -32.4
L68.4108 -32.4
L68.0757 -32.4
L67.7405 -32.4
L67.4054 -32.4
L67.0703 -32.4
L66.7351 -32.4
L66.4 -32.4
L66.0649 -32.4
L65.7297 -32.4
L65.3946 -32.4
L65.0595 -32.4
L64.7243 -32.4
L64.3892 -32.4
L64.0541 -32.4
L63.7189 -32.4
L63.3838 -32.4
L63.0486 -32.4
L62.7135 -32.4
L62.3784 -32.4
L62.0432 -32.4
L61.7081 -32.4
L61.373 -32.4
L61.0378 -32.4
L60.7027 -32.4
L60.3676 -32.4
L60.0324 -32.4
L59.6973 -32.4
L59.3622 -32.4
L59.027 -32.4
L58.6919 -32.4
L58.3568 -32.4
L58.0216 -32.4
L57.6865 -32.4
L57.3514 -32.4
L57.0162 -32.4
L56.6811 -32.4
L56.3459 -32.4
L56.0108 -32.4
L55.6757 -32.4
L55.3405 -32.4
L55.0054 -32.4
L54.6703 -32.4
L54.3351 -32.4
L54 -32.4
z
" id="C0_0_bb87e61dd6"/>
    </defs>
    <g clip-path="url(#p63b29d1948)">
     <use style="fill:#348abd;fill-opacity:0.45;stroke:#eeeeee;stroke-opacity:0.45;stroke-width:0.5;" x="0.0" xlink:href="#C0_0_bb87e61dd6" y="324.0"/>
    </g>
   </g>
   <g id="patch_3">
    <path d="
M54 32.4
L388.8 32.4" style="fill:none;stroke:#bcbcbc;"/>
   </g>
   <g id="patch_4">
    <path d="
M388.8 291.6
L388.8 32.4" style="fill:none;stroke:#bcbcbc;"/>
   </g>
   <g id="patch_5">
    <path d="
M54 291.6
L388.8 291.6" style="fill:none;stroke:#bcbcbc;"/>
   </g>
   <g id="patch_6">
    <path d="
M54 291.6
L54 32.4" style="fill:none;stroke:#bcbcbc;"/>
   </g>
  </g>
 </g>
 <defs>
  <clipPath id="p63b29d1948">
   <rect height="259.2" width="334.8" x="54.0" y="32.4"/>
  </clipPath>
 </defs>
</svg>
