<?xml version="1.0" encoding="UTF-8" standalone="no"?>
<!-- Created with Inkscape (http://www.inkscape.org/) -->

<svg
   xmlns:dc="http://purl.org/dc/elements/1.1/"
   xmlns:cc="http://creativecommons.org/ns#"
   xmlns:rdf="http://www.w3.org/1999/02/22-rdf-syntax-ns#"
   xmlns:svg="http://www.w3.org/2000/svg"
   xmlns="http://www.w3.org/2000/svg"
   xmlns:sodipodi="http://sodipodi.sourceforge.net/DTD/sodipodi-0.dtd"
   xmlns:inkscape="http://www.inkscape.org/namespaces/inkscape"
   width="280"
   height="380"
   id="svg2"
   version="1.1"
   inkscape:version="0.48.3.1 r9886"
   sodipodi:docname="google_analytics.svg"
   inkscape:export-filename="/home/smerity/Coding/smerity_flask/static/images/articles/2013/google_analytics.png"
   inkscape:export-xdpi="175.66467"
   inkscape:export-ydpi="175.66467">
  <defs
     id="defs4" />
  <sodipodi:namedview
     id="base"
     pagecolor="#ffffff"
     bordercolor="#666666"
     borderopacity="1.0"
     inkscape:pageopacity="0.0"
     inkscape:pageshadow="2"
     inkscape:zoom="1.24"
     inkscape:cx="310.48387"
     inkscape:cy="179.90783"
     inkscape:document-units="px"
     inkscape:current-layer="layer1"
     showgrid="false"
     inkscape:window-width="1366"
     inkscape:window-height="744"
     inkscape:window-x="0"
     inkscape:window-y="24"
     inkscape:window-maximized="1" />
  <metadata
     id="metadata7">
    <rdf:RDF>
      <cc:Work
         rdf:about="">
        <dc:format>image/svg+xml</dc:format>
        <dc:type
           rdf:resource="http://purl.org/dc/dcmitype/StillImage" />
        <dc:title></dc:title>
      </cc:Work>
    </rdf:RDF>
  </metadata>
  <g
     inkscape:label="Layer 1"
     inkscape:groupmode="layer"
     id="layer1"
     transform="translate(0,-672.36218)">
    <rect
       style="fill:#e6e6e6;fill-opacity:0.57077631;fill-rule:nonzero;stroke:#000000;stroke-width:3.70000005;stroke-linecap:butt;stroke-linejoin:miter;stroke-miterlimit:4;stroke-opacity:1;stroke-dasharray:none;stroke-dashoffset:0"
       id="rect4261-4-8"
       width="252.41934"
       height="83.064522"
       x="14.870974"
       y="960.87842" />
    <rect
       style="fill:#e6e6e6;fill-opacity:0.57077631;fill-rule:nonzero;stroke:#000000;stroke-width:3.70000005;stroke-linecap:butt;stroke-linejoin:miter;stroke-miterlimit:4;stroke-opacity:1;stroke-dasharray:none;stroke-dashoffset:0"
       id="rect4261-4"
       width="252.41934"
       height="83.064522"
       x="14.870974"
       y="866.87836" />
    <rect
       style="fill:#e6e6e6;fill-opacity:0.57077631;fill-rule:nonzero;stroke:#000000;stroke-width:3.70000005;stroke-linecap:butt;stroke-linejoin:miter;stroke-miterlimit:4;stroke-opacity:1;stroke-dasharray:none;stroke-dashoffset:0"
       id="rect4261"
       width="252.41934"
       height="83.064522"
       x="14.870974"
       y="772.87836" />
    <g
       id="g3097"
       transform="translate(4.8150123,763.54767)">
      <g
         id="Captions">
        <path
           id="path3088"
           d="m 49.249,17.499 c -17.782,0 -32.25,14.469 -32.25,32.25 0,17.784 14.468,32.252 32.25,32.252 17.78,0 32.251,-14.469 32.251,-32.252 0,-17.781 -14.471,-32.25 -32.251,-32.25 z M 74.211,62.84 c -0.006,0 -0.012,-0.006 -0.018,-0.006 h -6.654 c 0.986,-3.357 1.666,-7.1 1.852,-11.121 h 7.979 c -0.284,4.004 -1.378,7.748 -3.159,11.127 z M 51.381,77.855 V 66.762 h 10.584 c -2.064,4.939 -4.484,8.549 -5.855,10.371 -1.53,0.387 -3.108,0.599 -4.729,0.722 z M 42.543,77.182 C 41.179,75.383 38.734,71.75 36.647,66.762 H 47.455 V 77.889 C 45.774,77.781 44.131,77.57 42.543,77.182 z M 24.283,62.84 C 22.505,59.461 21.405,55.717 21.122,51.713 h 8.094 c 0.186,4.021 0.866,7.764 1.852,11.121 h -6.763 c -0.009,0 -0.014,0.006 -0.022,0.006 z m 0.186,-26.527 c 0.019,0.003 0.032,0.012 0.048,0.012 h 6.681 c -1.24,3.988 -1.821,7.815 -1.971,11.462 h -8.105 c 0.291,-4.143 1.46,-8.007 3.347,-11.474 z M 47.456,21.606 V 32.398 H 36.892 c 1.489,-3.33 3.466,-6.745 6.065,-10.211 1.456,-0.334 2.967,-0.482 4.499,-0.581 z m 8.23,0.625 c 2.584,3.453 4.549,6.851 6.031,10.167 H 51.381 V 21.643 c 1.467,0.108 2.912,0.262 4.305,0.588 z m 7.56,14.094 c 1.357,3.996 2.006,7.828 2.174,11.462 H 51.381 V 36.325 h 11.865 z m -15.79,0 V 47.787 H 33.187 c 0.17,-3.634 0.819,-7.466 2.18,-11.462 H 47.456 z M 33.182,51.713 H 47.456 V 62.834 H 35.202 C 34.143,59.516 33.381,55.783 33.182,51.713 z M 51.381,62.834 V 51.713 h 14.045 c -0.203,4.07 -0.959,7.803 -2.02,11.121 H 51.381 z M 69.379,47.787 C 69.233,44.14 68.65,40.313 67.408,36.325 h 6.568 c 0.014,0 0.031,-0.009 0.049,-0.012 1.883,3.467 3.055,7.331 3.344,11.474 h -7.99 z m 2.086,-15.389 h -5.52 C 64.9,29.84 63.629,27.244 62.004,24.602 c 3.707,1.892 6.916,4.545 9.461,7.796 z m -34.79,-7.897 c -1.651,2.678 -2.955,5.307 -4.012,7.897 h -5.635 c 2.588,-3.305 5.864,-6.002 9.647,-7.897 z m -9.926,42.261 h 5.641 c 1.202,3.137 2.576,5.816 3.854,8.002 -3.73,-1.95 -6.968,-4.666 -9.495,-8.002 z m 35.665,7.906 c 1.264,-2.168 2.619,-4.813 3.801,-7.906 h 5.525 c -2.486,3.287 -5.662,5.963 -9.326,7.906 z"
           inkscape:connector-curvature="0"
           style="fill:#000000" />
      </g>
      <g
         id="Your_Icon" />
    </g>
    <g
       id="g3284"
       transform="translate(10.790322,856.99122)">
      <g
         id="Captions-3" />
      <g
         id="Your_Icon-5">
        <polygon
           id="polygon3232"
           points="19,19 19,22 21,22 21,21 64,21 64,79 62,79 62,81 66,81 66,19 " />
        <polygon
           id="polygon3234"
           points="24,15 24,18 26,18 26,17 69,17 69,75 67,75 67,77 71,77 71,15 " />
        <g
           id="g3236">
          <g
             id="g3238">
            <path
               id="path3240"
               d="M 45.776,22.711 H 14 V 86 H 61.428 V 38.362 L 45.776,22.711 z m 2.367,5.712 7.572,7.573 H 48.143 V 28.423 z M 59.062,83.634 H 16.366 V 25.077 h 29.41 v 13.286 h 13.285 v 45.271 z"
               inkscape:connector-curvature="0" />
          </g>
          <g
             id="g3242">
            <rect
               id="rect3244"
               height="2.3670001"
               width="16.563999"
               y="30.756001"
               x="20.797001" />
          </g>
          <g
             id="g3246">
            <rect
               id="rect3248"
               height="2.3670001"
               width="16.563999"
               y="35.724998"
               x="20.797001" />
          </g>
          <g
             id="g3250">
            <rect
               id="rect3252"
               height="2.3670001"
               width="33.131001"
               y="48.030998"
               x="20.797001" />
          </g>
          <g
             id="g3254">
            <rect
               id="rect3256"
               height="2.3670001"
               width="33.131001"
               y="43.298"
               x="20.797001" />
          </g>
          <g
             id="g3258">
            <rect
               id="rect3260"
               height="2.3659999"
               width="33.131001"
               y="52.764"
               x="20.797001" />
          </g>
          <g
             id="g3262">
            <rect
               id="rect3264"
               height="2.3670001"
               width="33.131001"
               y="57.495998"
               x="20.797001" />
          </g>
          <g
             id="g3266">
            <rect
               id="rect3268"
               height="2.365"
               width="33.131001"
               y="62.23"
               x="20.797001" />
          </g>
          <g
             id="g3270">
            <rect
               id="rect3272"
               height="2.3670001"
               width="18.931"
               y="75.482002"
               x="20.797001" />
          </g>
          <g
             id="g3274">
            <rect
               id="rect3276"
               height="2.3670001"
               width="9.4650002"
               y="66.488998"
               x="20.797001" />
          </g>
        </g>
      </g>
    </g>
    <g
       id="g4043"
       transform="matrix(0.7236862,0,0,0.7236862,19.820722,965.4262)">
      <g
         id="g3713">
        <polygon
           id="polygon3715"
           points="50.878,51.224 51.719,50.58 51.221,49.93 52.006,49.696 51.704,48.681 51.368,48.781 51.362,48.048 50.303,48.057 50.311,49.081 48.969,48.669 48.659,49.682 49.426,49.917 48.92,50.541 49.742,51.208 50.321,50.496 " />
        <rect
           id="rect3717"
           height="3.484"
           width="1.059"
           transform="matrix(0.7764,0.6302,-0.6302,0.7764,48.5538,-10.7637)"
           y="61.301998"
           x="38.917" />
        <rect
           id="rect3719"
           height="1.059"
           width="3.484"
           transform="matrix(0.6305,-0.7762,0.7762,0.6305,-29.5078,55.0912)"
           y="58.007"
           x="41.365002" />
        <rect
           id="rect3721"
           height="1.0599999"
           width="3.4849999"
           transform="matrix(0.6306,-0.7761,0.7761,0.6306,-24.6567,56.2598)"
           y="53.5"
           x="45.026001" />
        <polygon
           id="polygon3723"
           points="36.472,65.866 35.628,66.904 34.291,66.909 34.295,67.968 35.883,67.962 35.881,67.433 36.292,67.766 37.294,66.534 " />
        <rect
           id="rect3725"
           height="1.059"
           width="3.3570001"
           transform="matrix(0.6083,0.7937,-0.7937,0.6083,68.7457,-22.4141)"
           y="57.918999"
           x="55.404999" />
        <rect
           id="rect3727"
           height="1.059"
           width="3.3559999"
           transform="matrix(0.6084,0.7936,-0.7936,0.6084,73.5942,-23.3775)"
           y="62.358002"
           x="58.807999" />
        <rect
           id="rect3729"
           height="1.059"
           width="3.3559999"
           transform="matrix(0.6084,0.7936,-0.7936,0.6084,63.8829,-21.4532)"
           y="53.479"
           x="52.002998" />
        <rect
           id="rect3731"
           height="1.059"
           width="2.8039999"
           transform="matrix(-0.9585,0.2851,-0.2851,-0.9585,121.4565,78.8345)"
           y="47.727001"
           x="53.589001" />
        <rect
           id="rect3733"
           height="1.0599999"
           width="2.8039999"
           transform="matrix(0.9586,-0.2849,0.2849,0.9586,-9.7752,21.3311)"
           y="43.733002"
           x="67.026001" />
        <rect
           id="rect3735"
           height="1.0599999"
           width="2.8039999"
           transform="matrix(-0.9586,0.2849,-0.2849,-0.9586,129.843,74.9651)"
           y="46.395"
           x="58.068001" />
        <rect
           id="rect3737"
           height="3.5940001"
           width="1.059"
           transform="matrix(1,-0.0078,0.0078,1,-0.2483,0.3984)"
           y="30.08"
           x="50.182999" />
        <rect
           id="rect3739"
           height="1.059"
           width="3.5940001"
           transform="matrix(0.0075,1,-1,0.0075,94.2794,-7.2687)"
           y="43.328999"
           x="49.004002" />
        <rect
           id="rect3741"
           height="1.059"
           width="3.5940001"
           transform="matrix(-0.0076,-1,1,-0.0076,13.2759,88.9116)"
           y="37.339001"
           x="48.959999" />
        <rect
           id="rect3743"
           height="1.059"
           width="3.5150001"
           transform="matrix(-0.9562,-0.2927,0.2927,-0.9562,63.3232,101.9934)"
           y="45.73"
           x="37.534" />
        <rect
           id="rect3745"
           height="1.059"
           width="3.5150001"
           transform="matrix(0.9562,0.2928,-0.2928,0.9562,16.0168,-11.0431)"
           y="47.445999"
           x="43.134998" />
        <rect
           id="rect3747"
           height="1.059"
           width="3.5150001"
           transform="matrix(-0.9562,-0.2928,0.2928,-0.9562,52.8579,97.0012)"
           y="44.014999"
           x="31.931999" />
        <polygon
           id="polygon3749"
           points="41.286,35.815 41.312,34.756 40.431,34.734 40.699,33.895 39.69,33.573 39.207,35.086 39.207,35.086 38.695,36.577 39.696,36.921 40.086,35.786 " />
        <rect
           id="rect3751"
           height="3.112"
           width="1.059"
           transform="matrix(-0.9455,-0.3256,0.3256,-0.9455,60.8761,90.5541)"
           y="38.626999"
           x="37.487" />
        <rect
           id="rect3753"
           height="3.112"
           width="1.059"
           transform="matrix(-0.9455,-0.3256,0.3256,-0.9455,51.1271,108.5421)"
           y="48.437"
           x="34.118" />
        <rect
           id="rect3755"
           height="3.112"
           width="1.059"
           transform="matrix(-0.9455,-0.3256,0.3256,-0.9455,56.0015,99.5483)"
           y="43.532001"
           x="35.801998" />
        <polygon
           id="polygon3757"
           points="32.651,55.363 33.957,56.268 34.56,55.397 33.583,54.721 33.969,53.598 32.968,53.254 32.688,54.068 31.998,53.551 31.363,54.4 32.635,55.352 32.952,54.928 " />
        <rect
           id="rect3759"
           height="1.059"
           width="3.1700001"
           transform="matrix(0.822,0.5695,-0.5695,0.822,42.1222,-12.8663)"
           y="60.417"
           x="40.056999" />
        <rect
           id="rect3761"
           height="1.059"
           width="3.1700001"
           transform="matrix(0.822,0.5694,-0.5694,0.822,39.6298,-10.9284)"
           y="57.409"
           x="35.714001" />
        <rect
           id="rect3763"
           height="1.059"
           width="3.1700001"
           transform="matrix(0.8222,0.5692,-0.5692,0.8222,44.5746,-14.804)"
           y="63.424999"
           x="44.401001" />
        <polygon
           id="polygon3765"
           points="50.332,66.319 49.328,65.625 48.725,66.495 49.41,66.969 48.73,67.451 49.343,68.314 50.636,67.398 50.636,67.398 51.938,66.489 51.332,65.621 " />
        <rect
           id="rect3767"
           height="2.9760001"
           width="1.059"
           transform="matrix(-0.5721,-0.8202,0.8202,-0.5721,33.105,145.4067)"
           y="62.580002"
           x="53.951" />
        <rect
           id="rect3769"
           height="1.059"
           width="2.9749999"
           transform="matrix(0.8199,-0.5724,0.5724,0.8199,-22.1524,46.3565)"
           y="57.862"
           x="61.125" />
        <rect
           id="rect3771"
           height="2.9749999"
           width="1.059"
           transform="matrix(0.5716,0.8205,-0.8205,0.5716,75.3222,-21.8088)"
           y="59.742001"
           x="58.016998" />
        <polygon
           id="polygon3773"
           points="63.477,46.288 63.763,47.252 64.778,46.951 64.492,45.986 65.444,45.703 65.142,44.687 64.19,44.97 63.904,44.006 62.889,44.307 63.175,45.272 62.454,45.486 62.756,46.502 " />
        <rect
           id="rect3775"
           height="1.059"
           width="3.072"
           transform="matrix(0.2845,0.9587,-0.9587,0.2845,95.1649,-26.4322)"
           y="50.007999"
           x="63.754002" />
        <rect
           id="rect3777"
           height="3.073"
           width="1.059"
           transform="matrix(-0.9589,0.2837,-0.2837,-0.9589,133.7421,62.0737)"
           y="39.183998"
           x="61.847" />
        <rect
           id="rect3779"
           height="1.059"
           width="3.181"
           transform="matrix(0.9997,0.0244,-0.0244,0.9997,0.8863,-1.3467)"
           y="35.104"
           x="54.016998" />
        <rect
           id="rect3781"
           height="3.1800001"
           width="1.0599999"
           transform="matrix(-0.0244,0.9997,-0.9997,-0.0244,81.4729,-8.7559)"
           y="33.785999"
           x="44.479" />
        <rect
           id="rect3783"
           height="1.059"
           width="3.181"
           transform="matrix(0.9997,0.0243,-0.0243,0.9997,0.8759,-1.2096)"
           y="34.974998"
           x="48.717999" />
        <rect
           id="rect3785"
           height="1.5880001"
           width="1.059"
           transform="matrix(-0.5783,-0.8158,0.8158,-0.5783,-32.0303,154.7441)"
           y="84.856003"
           x="23.448" />
        <rect
           id="rect3787"
           height="1.058"
           width="3.326"
           transform="matrix(0.8158,-0.5784,0.5784,0.8158,-37.4808,35.4013)"
           y="76.008003"
           x="35.168999" />
        <polygon
           id="polygon3789"
           points="29.175,82.027 28.84,81.554 28.653,81.687 27.572,80.981 26.994,81.869 27.725,82.345 26.127,83.477 26.74,84.341 28.678,82.967 29.713,83.642 30.292,82.755 " />
        <rect
           id="rect3791"
           height="1.058"
           width="3.326"
           transform="matrix(0.8158,-0.5784,0.5784,0.8158,-32.1076,39.4493)"
           y="69.597"
           x="44.209999" />
        <rect
           id="rect3793"
           height="1.059"
           width="3.325"
           transform="matrix(0.8158,-0.5783,0.5783,0.8158,-34.7931,37.4226)"
           y="72.802002"
           x="39.688999" />
        <rect
           id="rect3795"
           height="1.058"
           width="3.325"
           transform="matrix(0.8158,-0.5783,0.5783,0.8158,-40.1659,33.3745)"
           y="79.212997"
           x="30.648001" />
        <rect
           id="rect3797"
           height="1.058"
           width="1.589"
           transform="matrix(-0.3353,-0.9421,0.9421,-0.3353,22.9142,186.8878)"
           y="84.832001"
           x="76.587997" />
        <rect
           id="rect3799"
           height="3.257"
           width="1.059"
           transform="matrix(-0.9423,0.3348,-0.3348,-0.9423,153.4587,94.6899)"
           y="58.944"
           x="68.038002" />
        <rect
           id="rect3801"
           height="3.257"
           width="1.059"
           transform="matrix(-0.9422,0.3351,-0.3351,-0.9422,163.9619,113.315)"
           y="69.174004"
           x="71.675003" />
        <rect
           id="rect3803"
           height="3.257"
           width="1.059"
           transform="matrix(0.9422,-0.3351,0.3351,0.9422,-22.7695,30.1012)"
           y="79.403999"
           x="75.314003" />
        <rect
           id="rect3805"
           height="3.2579999"
           width="1.059"
           transform="matrix(0.9423,-0.3347,0.3347,0.9423,-17.9263,27.3468)"
           y="64.058998"
           x="69.856003" />
        <polygon
           id="polygon3807"
           points="66.794,57.169 67.792,56.815 67.265,55.332 66.817,53.822 65.802,54.124 66.145,55.28 65.156,55.97 65.762,56.839 66.495,56.327 " />
        <polygon
           id="polygon3809"
           points="60.913,35.232 59.33,35.193 59.305,36.252 60.507,36.282 60.849,37.435 61.865,37.134 61.613,36.284 62.499,36.274 62.488,35.215 " />
        <rect
           id="rect3811"
           height="1.059"
           width="3.323"
           transform="matrix(0.9999,-0.0106,0.0106,0.9999,-0.374,0.7041)"
           y="35.174"
           x="64.708" />
        <rect
           id="rect3813"
           height="3.323"
           width="1.059"
           transform="matrix(0.0106,0.9999,-0.9999,0.0106,123.0489,-53.4251)"
           y="33.806"
           x="87.991997" />
        <rect
           id="rect3815"
           height="3.322"
           width="1.059"
           transform="matrix(0.0111,0.9999,-0.9999,0.0111,106.7548,-36.6536)"
           y="33.984001"
           x="71.378998" />
        <rect
           id="rect3817"
           height="1.059"
           width="3.323"
           transform="matrix(-0.9999,0.0107,-0.0107,-0.9999,155.2694,70.3391)"
           y="35.056"
           x="75.785004" />
        <rect
           id="rect3819"
           height="1.589"
           width="1.059"
           transform="matrix(0.0106,0.9999,-0.9999,0.0106,127.6197,-58.1454)"
           y="34.623001"
           x="92.663002" />
        <rect
           id="rect3821"
           height="1.5880001"
           width="1.059"
           transform="matrix(0.9527,0.3039,-0.3039,0.9527,3.474,-14.9561)"
           y="2.8889999"
           x="49.259998" />
        <rect
           id="rect3823"
           height="3.4170001"
           width="1.058"
           transform="matrix(0.9527,0.304,-0.304,0.9527,7.9267,-12.7383)"
           y="17.378"
           x="44.341999" />
        <rect
           id="rect3825"
           height="3.4170001"
           width="1.058"
           transform="matrix(0.9527,0.304,-0.304,0.9527,11.0614,-11.1715)"
           y="28.228001"
           x="40.877998" />
        <rect
           id="rect3827"
           height="3.4170001"
           width="1.058"
           transform="matrix(0.9527,0.304,-0.304,0.9527,4.7924,-14.3051)"
           y="6.5289998"
           x="47.806" />
        <polygon
           id="polygon3829"
           points="47.411,12.871 48.846,12.849 48.83,11.791 45.804,11.835 45.82,12.894 46.295,12.887 45.579,15.129 46.587,15.451 " />
        <rect
           id="rect3831"
           height="3.4170001"
           width="1.058"
           transform="matrix(-0.9527,-0.304,0.304,-0.9527,76.7833,60.9778)"
           y="22.802999"
           x="42.609001" />
        <rect
           id="rect3833"
           height="1.059"
           width="1.589"
           transform="matrix(0.8003,0.5996,-0.5996,0.8003,22.7073,2.8685)"
           y="34.993999"
           x="6.2529998" />
        <rect
           id="rect3835"
           height="1.059"
           width="3.3310001"
           transform="matrix(-0.8004,-0.5995,0.5995,-0.8004,14.4729,101.4527)"
           y="47.786999"
           x="22.459999" />
        <rect
           id="rect3837"
           height="1.0599999"
           width="3.3310001"
           transform="matrix(0.8004,0.5995,-0.5995,0.8004,25.1346,1.1812)"
           y="37.799999"
           x="9.1280003" />
        <rect
           id="rect3839"
           height="1.059"
           width="3.332"
           transform="matrix(-0.8003,-0.5996,0.5996,-0.8003,8.4616,92.7925)"
           y="44.458"
           x="18.016001" />
        <polygon
           id="polygon3841"
           points="16.253,43.081 16.889,42.233 14.222,40.236 13.587,41.084 13.644,41.126 13.149,40.983 12.286,43.971 13.303,44.265 14.11,41.475 " />
        <rect
           id="rect3843"
           height="1.0599999"
           width="3.332"
           transform="matrix(-0.8003,-0.5996,0.5996,-0.8003,20.4718,110.1086)"
           y="51.116001"
           x="26.903999" />
        <polygon
           id="polygon3845"
           points="21.944,14.392 21.978,14.278 22.872,14.094 22.695,13.239 23.628,13.225 23.612,12.166 22.024,12.189 22.031,12.646 21.793,12.695 21.369,12.572 20.927,14.097 " />
        <rect
           id="rect3847"
           height="1.059"
           width="3.1099999"
           transform="matrix(0.2779,-0.9606,0.9606,0.2779,-13.9263,36.8491)"
           y="27.158001"
           x="15.992" />
        <rect
           id="rect3849"
           height="3.1099999"
           width="1.059"
           transform="matrix(0.9605,0.2784,-0.2784,0.9605,9.7301,-3.1924)"
           y="31.112"
           x="15.577" />
        <rect
           id="rect3851"
           height="3.1099999"
           width="1.0599999"
           transform="matrix(0.9609,0.277,-0.277,0.9609,5.71,-4.9643)"
           y="16.174999"
           x="19.898001" />
        <rect
           id="rect3853"
           height="3.1099999"
           width="1.059"
           transform="matrix(-0.9608,-0.2771,0.2771,-0.9608,-2.6907,124.6994)"
           y="60.985001"
           x="6.9359999" />
        <rect
           id="rect3855"
           height="3.109"
           width="1.059"
           transform="matrix(0.9606,0.2779,-0.2779,0.9606,15.0226,-0.8038)"
           y="51.027"
           x="9.8170004" />
        <rect
           id="rect3857"
           height="1.059"
           width="3.1099999"
           transform="matrix(-0.2779,0.9606,-0.9606,-0.2779,66.674,65.0028)"
           y="57.030998"
           x="7.3509998" />
        <rect
           id="rect3859"
           height="3.1099999"
           width="1.059"
           transform="matrix(0.9606,0.2779,-0.2779,0.9606,11.0413,-2.5932)"
           y="36.09"
           x="14.137" />
        <rect
           id="rect3861"
           height="3.1099999"
           width="1.059"
           transform="matrix(-0.9607,-0.2775,0.2775,-0.9607,9.8981,96.6065)"
           y="46.048"
           x="11.256" />
        <rect
           id="rect3863"
           height="3.1099999"
           width="1.059"
           transform="matrix(0.9605,0.2784,-0.2784,0.9605,7.072,-4.3879)"
           y="21.153999"
           x="18.458" />
        <polygon
           id="polygon3865"
           points="7,69 7,68.02 7.333,67.975 7.606,67.955 7.602,67.015 6.721,67.018 6.966,66.172 5.949,65.877 5.507,67.403 6.016,67.55 5.727,67.994 7.058,69.325 7.571,69 " />
        <rect
           id="rect3867"
           height="1.0599999"
           width="3.247"
           transform="matrix(-0.8374,-0.5466,0.5466,-0.8374,-5.7784,151.08)"
           y="75.869003"
           x="17.957001" />
        <rect
           id="rect3869"
           height="1.059"
           width="3.247"
           transform="matrix(-0.8375,-0.5464,0.5464,-0.8375,27.7934,190.623)"
           y="90.650002"
           x="40.612999" />
        <rect
           id="rect3871"
           height="1.059"
           width="3.2460001"
           transform="matrix(-0.8376,-0.5462,0.5462,-0.8376,21.0979,182.7191)"
           y="87.695"
           x="36.083" />
        <rect
           id="rect3873"
           height="1.059"
           width="3.2460001"
           transform="matrix(-0.8376,-0.5462,0.5462,-0.8376,34.5217,198.5331)"
           y="93.606003"
           x="45.145" />
        <rect
           id="rect3875"
           height="1.059"
           width="3.2460001"
           transform="matrix(-0.8376,-0.5463,0.5463,-0.8376,-12.4709,143.1784)"
           y="72.914001"
           x="13.426" />
        <rect
           id="rect3877"
           height="1.059"
           width="3.2460001"
           transform="matrix(-0.8374,-0.5465,0.5465,-0.8374,14.356,174.8051)"
           y="84.737999"
           x="31.551001" />
        <rect
           id="rect3879"
           height="1.059"
           width="3.2460001"
           transform="matrix(-0.8375,-0.5464,0.5464,-0.8375,0.9418,158.991)"
           y="78.825996"
           x="22.489" />
        <rect
           id="rect3881"
           height="1.0599999"
           width="3.2460001"
           transform="matrix(-0.8374,-0.5465,0.5465,-0.8374,-19.1959,135.2646)"
           y="69.957001"
           x="8.8950005" />
        <rect
           id="rect3883"
           height="3.257"
           width="1.059"
           transform="matrix(-0.6379,-0.7701,0.7701,-0.6379,47.2144,188.7149)"
           y="81.627998"
           x="67.445" />
        <rect
           id="rect3885"
           height="3.2579999"
           width="1.059"
           transform="matrix(-0.6378,-0.7702,0.7702,-0.6378,28.1724,193.604)"
           y="88.549004"
           x="59.077999" />
        <rect
           id="rect3887"
           height="3.2579999"
           width="1.059"
           transform="matrix(-0.6381,-0.77,0.77,-0.6381,94.8362,176.4867)"
           y="64.325996"
           x="88.365997" />
        <rect
           id="rect3889"
           height="3.2579999"
           width="1.059"
           transform="matrix(-0.6379,-0.7701,0.7701,-0.6379,18.6607,196.0513)"
           y="92.010002"
           x="54.893002" />
        <rect
           id="rect3891"
           height="3.2579999"
           width="1.059"
           transform="matrix(-0.6373,-0.7706,0.7706,-0.6373,37.6226,191.1419)"
           y="85.088997"
           x="63.262001" />
        <rect
           id="rect3893"
           height="3.2590001"
           width="1.059"
           transform="matrix(-0.6374,-0.7706,0.7706,-0.6374,75.698,181.3755)"
           y="71.246002"
           x="79.998001" />
        <polygon
           id="polygon3895"
           points="77.936,75.706 77.261,74.891 74.912,76.833 73.977,74.206 72.979,74.561 74.071,77.629 75.02,77.292 75.426,77.782 " />
        <rect
           id="rect3897"
           height="3.2579999"
           width="1.059"
           transform="matrix(-0.6376,-0.7704,0.7704,-0.6376,56.6946,186.264)"
           y="78.167999"
           x="71.629997" />
        <rect
           id="rect3899"
           height="3.2579999"
           width="1.059"
           transform="matrix(-0.6371,-0.7708,0.7708,-0.6371,85.1763,178.9341)"
           y="67.787003"
           x="84.181999" />
        <polygon
           id="polygon3901"
           points="93.386,62.929 93.048,62.521 93.539,62.322 92.94,60.851 92.35,61.091 92.288,61.029 92.145,61.174 91.959,61.25 91.992,61.33 91.544,61.784 92.259,62.487 91.487,63.125 92.162,63.941 " />
        <rect
           id="rect3903"
           height="3.256"
           width="1.058"
           transform="matrix(-0.9262,0.377,-0.377,-0.9262,167.8274,31.9489)"
           y="30.771999"
           x="80.258003" />
        <rect
           id="rect3905"
           height="3.2550001"
           width="1.058"
           transform="matrix(-0.926,0.3774,-0.3774,-0.926,161.9901,23.0028)"
           y="25.746"
           x="78.211998" />
        <rect
           id="rect3907"
           height="3.256"
           width="1.059"
           transform="matrix(-0.9261,0.3773,-0.3773,-0.9261,191.1761,67.5635)"
           y="50.875999"
           x="88.442001" />
        <rect
           id="rect3909"
           height="3.257"
           width="1.059"
           transform="matrix(-0.9261,0.3773,-0.3773,-0.9261,179.5011,49.7458)"
           y="40.824001"
           x="84.348999" />
        <rect
           id="rect3911"
           height="3.256"
           width="1.058"
           transform="matrix(0.926,-0.3774,0.3774,0.926,-11.4907,36.3196)"
           y="45.851002"
           x="86.396004" />
        <rect
           id="rect3913"
           height="3.2550001"
           width="1.058"
           transform="matrix(0.926,-0.3774,0.3774,0.926,-14.9821,38.6076)"
           y="55.903"
           x="90.487999" />
        <rect
           id="rect3915"
           height="3.256"
           width="1.059"
           transform="matrix(-0.9261,0.3773,-0.3773,-0.9261,150.3152,5.1988)"
           y="15.692"
           x="74.119003" />
        <polygon
           id="polygon3917"
           points="82.848,36.058 84.651,36.039 84.64,34.98 81.317,35.015 81.329,36.074 81.85,36.068 81.729,36.118 82.957,39.134 83.937,38.734 " />
        <rect
           id="rect3919"
           height="3.256"
           width="1.059"
           transform="matrix(-0.9263,0.3769,-0.3769,-0.9263,156.156,14.1421)"
           y="20.719"
           x="76.165001" />
        <rect
           id="rect3921"
           height="3.027"
           width="1.059"
           transform="matrix(0.0152,0.9999,-0.9999,0.0152,39.379,-14.697)"
           y="11.129"
           x="26.621" />
        <rect
           id="rect3923"
           height="3.027"
           width="1.059"
           transform="matrix(0.0148,0.9999,-0.9999,0.0148,54.0734,-30.0424)"
           y="10.904"
           x="41.751999" />
        <rect
           id="rect3925"
           height="3.027"
           width="1.059"
           transform="matrix(0.0143,0.9999,-0.9999,0.0143,73.6778,-50.5055)"
           y="10.603"
           x="61.925999" />
        <rect
           id="rect3927"
           height="3.027"
           width="1.059"
           transform="matrix(0.0152,0.9999,-0.9999,0.0152,44.2708,-19.8137)"
           y="11.055"
           x="31.664" />
        <rect
           id="rect3929"
           height="3.027"
           width="1.059"
           transform="matrix(0.0152,0.9999,-0.9999,0.0152,63.837,-40.282)"
           y="10.754"
           x="51.839001" />
        <rect
           id="rect3931"
           height="3.027"
           width="1.059"
           transform="matrix(0.0148,0.9999,-0.9999,0.0148,68.7551,-45.3932)"
           y="10.679"
           x="56.882" />
        <rect
           id="rect3933"
           height="3.027"
           width="1.0599999"
           transform="matrix(0.0143,0.9999,-0.9999,0.0143,78.5754,-55.6219)"
           y="10.529"
           x="66.969002" />
        <rect
           id="rect3935"
           height="3.026"
           width="1.059"
           transform="matrix(0.0148,0.9999,-0.9999,0.0148,49.1793,-24.9254)"
           y="10.979"
           x="36.708" />
        <rect
           id="rect3937"
           height="1.059"
           width="2.9660001"
           y="66.961998"
           x="19.466" />
        <rect
           id="rect3939"
           height="1.059"
           width="2.9649999"
           y="66.981003"
           x="14.524" />
        <rect
           id="rect3941"
           height="1.059"
           width="2.9649999"
           y="67.000999"
           x="9.5819998" />
        <rect
           id="rect3943"
           height="1.059"
           width="2.9649999"
           y="66.942001"
           x="24.409" />
        <rect
           id="rect3945"
           height="1.059"
           width="2.9649999"
           transform="matrix(-1,0.004,-0.004,-1,61.9339,134.7824)"
           y="66.922997"
           x="29.351" />
        <polygon
           id="polygon3947"
           points="28.736,42.474 28.602,41.824 27.565,42.038 27.886,43.593 28.417,43.484 29.614,43.85 29.924,42.838 " />
        <rect
           id="rect3949"
           height="1.059"
           width="3.1459999"
           transform="matrix(-0.2024,-0.9793,0.9793,-0.2024,10.3424,44.0149)"
           y="17.266001"
           x="21.523001" />
        <rect
           id="rect3951"
           height="1.059"
           width="3.1459999"
           transform="matrix(-0.2026,-0.9793,0.9793,-0.2026,-0.9108,65.6607)"
           y="32.672001"
           x="24.705999" />
        <rect
           id="rect3953"
           height="3.145"
           width="1.0599999"
           transform="matrix(-0.9793,0.2023,-0.2023,-0.9793,52.4537,40.5003)"
           y="21.358"
           x="23.627001" />
        <rect
           id="rect3955"
           height="1.059"
           width="3.1459999"
           transform="matrix(0.2022,0.9793,-0.9793,0.2022,59.3551,3.8078)"
           y="37.806"
           x="25.767" />
        <rect
           id="rect3957"
           height="3.1459999"
           width="1.059"
           transform="matrix(-0.9794,0.2019,-0.2019,-0.9794,55.5826,50.4631)"
           y="26.493"
           x="24.688" />
        <polygon
           id="polygon3959"
           points="50.346,25.813 50.53,26.097 50.14,26.1 50.152,27.688 51.211,27.68 51.202,26.52 52.255,25.839 51.68,24.95 " />
        <rect
           id="rect3961"
           height="1.059"
           width="3.1370001"
           transform="matrix(-0.8397,0.5431,-0.5431,-0.8397,127.0369,-2.0481)"
           y="17.198999"
           x="62.251999" />
        <rect
           id="rect3963"
           height="3.1370001"
           width="1.059"
           transform="matrix(-0.5426,-0.84,0.84,-0.5426,65.2462,82.341)"
           y="21.837999"
           x="54.511002" />
        <rect
           id="rect3965"
           height="1.059"
           width="3.1370001"
           transform="matrix(-0.8396,0.5432,-0.5432,-0.8396,120.5024,5.5567)"
           y="20.038"
           x="57.862" />
        <rect
           id="rect3967"
           height="1.059"
           width="3.1370001"
           transform="matrix(-0.8397,0.543,-0.543,-0.8397,133.5731,-9.6494)"
           y="14.36"
           x="66.641998" />
        <polygon
           id="polygon3969"
           points="70.996,12.458 71.571,13.347 72.274,12.892 72.726,14.001 73.707,13.603 73.107,12.131 72.767,12.27 72.619,12.041 72.61,11.436 71.021,11.46 71.035,12.432 " />
        <polygon
           id="polygon3971"
           points="73.458,42.501 73.086,42.879 72.936,42.371 71.413,42.824 71.715,43.839 72.938,43.476 73.848,44.37 74.59,43.616 " />
        <rect
           id="rect3973"
           height="1.059"
           width="3.3859999"
           transform="matrix(-0.7129,-0.7013,0.7013,-0.7129,103.2656,143.7227)"
           y="50.191002"
           x="79.362999" />
        <rect
           id="rect3975"
           height="1.058"
           width="3.385"
           transform="matrix(-0.7128,-0.7014,0.7014,-0.7128,111.4827,162.9252)"
           y="58.106998"
           x="87.407997" />
        <rect
           id="rect3977"
           height="1.059"
           width="3.3859999"
           transform="matrix(-0.7127,-0.7015,0.7015,-0.7127,99.1339,134.1273)"
           y="46.233002"
           x="75.341003" />
        <rect
           id="rect3979"
           height="1.059"
           width="3.385"
           transform="matrix(-0.7128,-0.7014,0.7014,-0.7128,107.3697,153.3255)"
           y="54.148998"
           x="83.386002" />
        <polygon
           id="polygon3981"
           points="64.323,67.461 63.835,67.255 64.255,66.934 63.289,65.673 62.448,66.317 63.227,67.333 62.73,68.514 63.707,68.925 " />
        <rect
           id="rect3983"
           height="1.059"
           width="3.2420001"
           transform="matrix(0.3881,-0.9216,0.9216,0.3881,-40.5085,103.3138)"
           y="81.635002"
           x="55.931" />
        <rect
           id="rect3985"
           height="1.059"
           width="3.2420001"
           transform="matrix(-0.3883,0.9215,-0.9215,-0.3883,153.9424,52.1865)"
           y="76.654999"
           x="58.029999" />
        <rect
           id="rect3987"
           height="1.059"
           width="3.243"
           transform="matrix(-0.3882,0.9216,-0.9216,-0.3882,157.2916,69.8686)"
           y="86.613998"
           x="53.833" />
        <rect
           id="rect3989"
           height="1.059"
           width="3.2420001"
           transform="matrix(0.3883,-0.9216,0.9216,0.3883,-52.2558,105.5259)"
           y="91.593002"
           x="51.735001" />
        <rect
           id="rect3991"
           height="1.0599999"
           width="3.2420001"
           transform="matrix(0.3884,-0.9215,0.9215,0.3884,-28.7715,101.0579)"
           y="71.675003"
           x="60.127998" />
        <polygon
           id="polygon3993"
           points="51.608,97.481 52.832,96.469 52.347,95.883 52.375,95.815 52.246,95.76 52.157,95.652 52.101,95.699 51.399,95.403 51.028,96.283 50.229,95.762 49.651,96.649 50.981,97.517 51.271,97.073 " />
      </g>
      <circle
         id="circle3995"
         r="2.928"
         cy="35.047001"
         cx="6.4099998"
         sodipodi:cx="6.4099998"
         sodipodi:cy="35.047001"
         sodipodi:rx="2.928"
         sodipodi:ry="2.928"
         d="m 9.3379998,35.047001 c 0,1.61709 -1.3109102,2.928 -2.928,2.928 -1.6170897,0 -2.9279999,-1.31091 -2.9279999,-2.928 0,-1.61709 1.3109102,-2.928 2.9279999,-2.928 1.6170898,0 2.928,1.31091 2.928,2.928 z" />
      <circle
         id="circle3997"
         r="4.79"
         cy="55.015999"
         cx="32.979"
         sodipodi:cx="32.979"
         sodipodi:cy="55.015999"
         sodipodi:rx="4.79"
         sodipodi:ry="4.79"
         d="m 37.769,55.015999 c 0,2.645444 -2.144556,4.79 -4.79,4.79 -2.645444,0 -4.79,-2.144556 -4.79,-4.79 0,-2.645444 2.144556,-4.79 4.79,-4.79 2.645444,0 4.79,2.144556 4.79,4.79 z" />
      <circle
         id="circle3999"
         r="2.928"
         cy="62.521"
         cx="93.050003"
         sodipodi:cx="93.050003"
         sodipodi:cy="62.521"
         sodipodi:rx="2.928"
         sodipodi:ry="2.928"
         d="m 95.978003,62.521 c 0,1.61709 -1.31091,2.928 -2.928,2.928 -1.61709,0 -2.928,-1.31091 -2.928,-2.928 0,-1.61709 1.31091,-2.928 2.928,-2.928 1.61709,0 2.928,1.31091 2.928,2.928 z" />
      <circle
         id="circle4001"
         r="2.9260001"
         cy="35.409"
         cx="93.987"
         sodipodi:cx="93.987"
         sodipodi:cy="35.409"
         sodipodi:rx="2.9260001"
         sodipodi:ry="2.9260001"
         d="m 96.913,35.409 c 0,1.615986 -1.310015,2.926001 -2.926,2.926001 -1.615986,0 -2.926001,-1.310015 -2.926001,-2.926001 0,-1.615985 1.310015,-2.926 2.926001,-2.926 1.615985,0 2.926,1.310015 2.926,2.926 z" />
      <circle
         id="circle4003"
         r="2.928"
         cy="97.072998"
         cx="51.27"
         sodipodi:cx="51.27"
         sodipodi:cy="97.072998"
         sodipodi:rx="2.928"
         sodipodi:ry="2.928"
         d="m 54.198,97.072998 c 0,1.61709 -1.31091,2.928002 -2.928,2.928002 -1.617089,0 -2.928,-1.310912 -2.928,-2.928002 0,-1.61709 1.310911,-2.928 2.928,-2.928 1.61709,0 2.928,1.31091 2.928,2.928 z" />
      <circle
         id="circle4005"
         r="2.928"
         cy="67.550003"
         cx="6.0149999"
         sodipodi:cx="6.0149999"
         sodipodi:cy="67.550003"
         sodipodi:rx="2.928"
         sodipodi:ry="2.928"
         d="m 8.9429998,67.550003 c 0,1.61709 -1.3109102,2.928 -2.9279999,2.928 -1.6170898,0 -2.928,-1.31091 -2.928,-2.928 0,-1.61709 1.3109102,-2.928 2.928,-2.928 1.6170897,0 2.9279999,1.31091 2.9279999,2.928 z" />
      <circle
         id="circle4007"
         r="5.5110002"
         cy="49.640999"
         cx="50.332001"
         sodipodi:cx="50.332001"
         sodipodi:cy="49.640999"
         sodipodi:rx="5.5110002"
         sodipodi:ry="5.5110002"
         d="m 55.843001,49.640999 c 0,3.043641 -2.467359,5.511 -5.511,5.511 -3.043642,0 -5.511,-2.467359 -5.511,-5.511 0,-3.043642 2.467358,-5.511 5.511,-5.511 3.043641,0 5.511,2.467358 5.511,5.511 z" />
      <circle
         id="circle4009"
         r="4.79"
         cy="35"
         cx="39.816002"
         sodipodi:cx="39.816002"
         sodipodi:cy="35"
         sodipodi:rx="4.79"
         sodipodi:ry="4.79"
         d="m 44.606002,35 c 0,2.645444 -2.144556,4.79 -4.79,4.79 -2.645444,0 -4.79,-2.144556 -4.79,-4.79 0,-2.645444 2.144556,-4.79 4.79,-4.79 2.645444,0 4.79,2.144556 4.79,4.79 z" />
      <circle
         id="circle4011"
         r="4.79"
         cy="35.841999"
         cx="60.903999"
         sodipodi:cx="60.903999"
         sodipodi:cy="35.841999"
         sodipodi:rx="4.79"
         sodipodi:ry="4.79"
         d="m 65.693999,35.841999 c 0,2.645444 -2.144556,4.79 -4.79,4.79 -2.645444,0 -4.79,-2.144556 -4.79,-4.79 0,-2.645444 2.144556,-4.79 4.79,-4.79 2.645444,0 4.79,2.144556 4.79,4.79 z" />
      <circle
         id="circle4013"
         r="2.9260001"
         cy="86.109001"
         cx="77.649002"
         sodipodi:cx="77.649002"
         sodipodi:cy="86.109001"
         sodipodi:rx="2.9260001"
         sodipodi:ry="2.9260001"
         d="m 80.575002,86.109001 c 0,1.615985 -1.310015,2.926 -2.926,2.926 -1.615985,0 -2.926,-1.310015 -2.926,-2.926 0,-1.615985 1.310015,-2.926 2.926,-2.926 1.615985,0 2.926,1.310015 2.926,2.926 z" />
      <circle
         id="circle4015"
         r="4.789"
         cy="67.209999"
         cx="50.634998"
         sodipodi:cx="50.634998"
         sodipodi:cy="67.209999"
         sodipodi:rx="4.789"
         sodipodi:ry="4.789"
         d="m 55.423998,67.209999 c 0,2.644892 -2.144108,4.789 -4.789,4.789 -2.644891,0 -4.789,-2.144108 -4.789,-4.789 0,-2.644892 2.144109,-4.789 4.789,-4.789 2.644892,0 4.789,2.144108 4.789,4.789 z" />
      <circle
         id="circle4017"
         r="4.79"
         cy="55.478001"
         cx="66.735001"
         sodipodi:cx="66.735001"
         sodipodi:cy="55.478001"
         sodipodi:rx="4.79"
         sodipodi:ry="4.79"
         d="m 71.525001,55.478001 c 0,2.645444 -2.144556,4.79 -4.79,4.79 -2.645444,0 -4.79,-2.144556 -4.79,-4.79 0,-2.645444 2.144556,-4.79 4.79,-4.79 2.645444,0 4.79,2.144556 4.79,4.79 z" />
      <circle
         id="circle4019"
         r="2.0280001"
         cy="42.879002"
         cx="28.249001"
         sodipodi:cx="28.249001"
         sodipodi:cy="42.879002"
         sodipodi:rx="2.0280001"
         sodipodi:ry="2.0280001"
         d="m 30.277001,42.879002 c 0,1.120033 -0.907967,2.028 -2.028,2.028 -1.120034,0 -2.028001,-0.907967 -2.028001,-2.028 0,-1.120034 0.907967,-2.028 2.028001,-2.028 1.120033,0 2.028,0.907966 2.028,2.028 z" />
      <circle
         id="circle4021"
         r="1.929"
         cy="26.257"
         cx="50.632999"
         sodipodi:cx="50.632999"
         sodipodi:cy="26.257"
         sodipodi:rx="1.929"
         sodipodi:ry="1.929"
         d="m 52.561999,26.257 c 0,1.065357 -0.863642,1.929 -1.929,1.929 -1.065357,0 -1.929,-0.863643 -1.929,-1.929 0,-1.065357 0.863643,-1.929 1.929,-1.929 1.065358,0 1.929,0.863643 1.929,1.929 z" />
      <circle
         id="circle4023"
         r="2.1270001"
         cy="67.432999"
         cx="35.881001"
         sodipodi:cx="35.881001"
         sodipodi:cy="67.432999"
         sodipodi:rx="2.1270001"
         sodipodi:ry="2.1270001"
         d="m 38.008001,67.432999 c 0,1.174709 -0.952291,2.127 -2.127,2.127 -1.17471,0 -2.127001,-0.952291 -2.127001,-2.127 0,-1.17471 0.952291,-2.127 2.127001,-2.127 1.174709,0 2.127,0.95229 2.127,2.127 z" />
      <circle
         id="circle4025"
         r="2.053"
         cy="67.254997"
         cx="63.833"
         sodipodi:cx="63.833"
         sodipodi:cy="67.254997"
         sodipodi:rx="2.053"
         sodipodi:ry="2.053"
         d="m 65.886,67.254997 c 0,1.133841 -0.919159,2.053 -2.053,2.053 -1.13384,0 -2.053,-0.919159 -2.053,-2.053 0,-1.13384 0.91916,-2.053 2.053,-2.053 1.133841,0 2.053,0.91916 2.053,2.053 z" />
      <circle
         id="circle4027"
         r="2.927"
         cy="2.927"
         cx="50.032001"
         sodipodi:cx="50.032001"
         sodipodi:cy="2.927"
         sodipodi:rx="2.927"
         sodipodi:ry="2.927"
         d="m 52.959002,2.927 c 0,1.6165375 -1.310463,2.9270001 -2.927001,2.9270001 -1.616537,0 -2.927,-1.3104626 -2.927,-2.9270001 0,-1.6165374 1.310463,-2.927 2.927,-2.927 1.616538,0 2.927001,1.3104626 2.927001,2.927 z" />
      <circle
         id="circle4029"
         r="2.928"
         cy="12.331"
         cx="72.615997"
         sodipodi:cx="72.615997"
         sodipodi:cy="12.331"
         sodipodi:rx="2.928"
         sodipodi:ry="2.928"
         d="m 75.543997,12.331 c 0,1.61709 -1.31091,2.928 -2.928,2.928 -1.617089,0 -2.928,-1.31091 -2.928,-2.928 0,-1.617089 1.310911,-2.9279996 2.928,-2.9279996 1.61709,0 2.928,1.3109106 2.928,2.9279996 z" />
      <circle
         id="circle4031"
         r="2.2260001"
         cy="42.879002"
         cx="73.084999"
         sodipodi:cx="73.084999"
         sodipodi:cy="42.879002"
         sodipodi:rx="2.2260001"
         sodipodi:ry="2.2260001"
         d="m 75.310999,42.879002 c 0,1.229386 -0.996614,2.226 -2.226,2.226 -1.229386,0 -2.226,-0.996614 -2.226,-2.226 0,-1.229386 0.996614,-2.226 2.226,-2.226 1.229386,0 2.226,0.996614 2.226,2.226 z" />
      <circle
         id="circle4033"
         r="2.927"
         cy="86.109001"
         cx="23.330999"
         sodipodi:cx="23.330999"
         sodipodi:cy="86.109001"
         sodipodi:rx="2.927"
         sodipodi:ry="2.927"
         d="m 26.257999,86.109001 c 0,1.616538 -1.310462,2.927 -2.927,2.927 -1.616537,0 -2.927,-1.310462 -2.927,-2.927 0,-1.616537 1.310463,-2.927 2.927,-2.927 1.616538,0 2.927,1.310463 2.927,2.927 z" />
      <circle
         id="circle4035"
         r="2.928"
         cy="12.646"
         cx="22.031"
         sodipodi:cx="22.031"
         sodipodi:cy="12.646"
         sodipodi:rx="2.928"
         sodipodi:ry="2.928"
         d="m 24.959,12.646 c 0,1.61709 -1.31091,2.928 -2.928,2.928 -1.61709,0 -2.928,-1.31091 -2.928,-2.928 0,-1.61709 1.31091,-2.9280001 2.928,-2.9280001 1.61709,0 2.928,1.3109101 2.928,2.9280001 z" />
    </g>
    <text
       xml:space="preserve"
       style="font-size:64px;font-style:normal;font-variant:normal;font-weight:normal;font-stretch:normal;text-align:center;line-height:100%;letter-spacing:0px;word-spacing:0px;text-anchor:middle;fill:#000000;fill-opacity:1;stroke:none;font-family:Abraham Lincoln;-inkscape-font-specification:Abraham Lincoln"
       x="179.87097"
       y="808.78162"
       id="text4207"
       sodipodi:linespacing="100%"><tspan
         sodipodi:role="line"
         id="tspan4209"
         x="179.87097"
         y="808.78162"
         style="font-size:32px;line-height:100%">29.96% of 48.5</tspan><tspan
         sodipodi:role="line"
         x="179.87097"
         y="840.78162"
         id="tspan4211"
         style="font-size:32px;line-height:100%">million domains</tspan></text>
    <text
       xml:space="preserve"
       style="font-size:64px;font-style:normal;font-variant:normal;font-weight:normal;font-stretch:normal;text-align:center;line-height:100%;letter-spacing:0px;word-spacing:0px;text-anchor:middle;fill:#000000;fill-opacity:1;stroke:none;font-family:Abraham Lincoln;-inkscape-font-specification:Abraham Lincoln"
       x="179.70898"
       y="902.99506"
       id="text4207-9"
       sodipodi:linespacing="100%"><tspan
         sodipodi:role="line"
         id="tspan4209-9"
         x="179.70898"
         y="902.99506"
         style="font-size:32px;line-height:100%">39.69% of 535</tspan><tspan
         sodipodi:role="line"
         x="179.70898"
         y="934.99506"
         id="tspan4211-4"
         style="font-size:32px;line-height:100%">million webpages</tspan></text>
    <text
       xml:space="preserve"
       style="font-size:64px;font-style:normal;font-variant:normal;font-weight:normal;font-stretch:normal;text-align:center;line-height:100%;letter-spacing:0px;word-spacing:0px;text-anchor:middle;fill:#000000;fill-opacity:1;stroke:none;font-family:Abraham Lincoln;-inkscape-font-specification:Abraham Lincoln"
       x="179.70898"
       y="996.99506"
       id="text4207-9-3"
       sodipodi:linespacing="100%"><tspan
         sodipodi:role="line"
         id="tspan4209-9-2"
         x="179.70898"
         y="996.99506"
         style="font-size:32px;line-height:100%">48.96% of 42.181</tspan><tspan
         sodipodi:role="line"
         x="179.70898"
         y="1028.9951"
         id="tspan4211-4-6"
         style="font-size:32px;line-height:100%">billion links</tspan></text>
    <text
       xml:space="preserve"
       style="font-size:64px;font-style:normal;font-variant:normal;font-weight:normal;font-stretch:normal;text-align:center;line-height:100%;letter-spacing:0px;word-spacing:0px;text-anchor:middle;fill:#000000;fill-opacity:1;stroke:none;font-family:Abraham Lincoln;-inkscape-font-specification:Abraham Lincoln"
       x="140.5477"
       y="667.6402"
       id="text4207-4"
       sodipodi:linespacing="100%"><tspan
         sodipodi:role="line"
         x="140.5477"
         y="667.6402"
         id="tspan4211-0"
         style="font-size:32px;line-height:100%" /><tspan
         sodipodi:role="line"
         x="144.90707"
         y="711.6402"
         style="font-size:48px;line-height:100%"
         id="tspan3213">Coverage of </tspan><tspan
         sodipodi:role="line"
         x="140.5477"
         y="759.6402"
         style="font-size:48px;line-height:100%"
         id="tspan3215">Google Analytics</tspan></text>
  </g>
</svg>
